<svg xmlns="http://www.w3.org/2000/svg" width="512" height="512" fill="none" viewBox="0 0 512 512" id="bright-future">
  <path fill="#fff" d="M336.209 351.241L332.479 347.241C333.649 339.401 335.899 331.721 339.099 324.471 341.729 318.531 345.009 312.901 348.489 307.411L353.769 313.251C376.559 334.871 410.209 325.701 421.999 297.541 433.789 269.371 425.259 233.331 385.699 190.791 379.929 184.581 374.429 180.171 369.049 176.651 356.219 168.251 344.099 164.901 330.749 154.491 327.069 151.621 323.289 148.201 319.379 144.001 312.689 136.801 307.419 128.501 302.059 120.271 296.709 112.021 289.779 103.961 280.309 101.341L277.699 100.441C281.779 97.6212 286.119 95.1812 290.659 93.1912L296.009 91.7712C294.749 90.9312 293.649 89.9112 292.759 88.6812L292.769 86.8412C292.309 86.5512 291.879 86.2012 291.509 85.8012 290.489 84.6812 289.839 83.3112 289.349 81.8512L286.349 82.1312C284.519 82.8912 282.339 82.2612 280.829 80.9812 279.319 79.7012 278.409 77.8612 277.759 75.9812 276.549 72.5312 276.149 68.7312 277.119 65.2112 278.089 61.6912 280.559 58.4912 283.949 57.1212 287.329 55.7412 291.589 56.4612 294.039 59.1812 297.329 55.9412 303.289 55.6912 306.909 58.5612 312.869 55.0612 321.659 56.3912 326.629 61.1912 332.139 59.7312 338.569 60.5712 343.369 63.6212 343.799 63.8912 344.199 64.1812 344.599 64.4612 351.519 69.5912 354.549 78.4712 355.629 87.1312 356.779 96.2812 356.879 105.961 361.459 113.961 366.719 123.131 378.869 133.301 387.279 139.701 443.209 182.261 464.559 208.461 468.489 267.411 473.179 337.701 402.999 393.801 336.209 351.241zM244.04 353.668L240.74 355.918C149.66 407.238 79.7495 359.758 61.0595 316.148 42.3795 272.528 48.3195 220.588 47.5695 184.648 47.3695 174.708 43.2895 165.138 43.2695 155.198 43.2695 152.918 43.3895 150.548 44.4895 148.558 45.5895 146.568 47.9395 145.098 50.1395 145.698 52.3195 146.308 53.5295 148.618 54.2695 150.768 55.0095 152.918 55.6295 155.288 57.4295 156.688L61.2695 160.878C60.8495 154.528 61.0595 148.148 61.8795 141.848 62.2595 138.908 63.2095 135.438 66.0295 134.538 68.1495 133.858 70.5295 135.058 71.8595 136.838 73.1895 138.628 73.6895 140.888 74.0795 143.078 74.4595 145.278 74.7695 147.528 75.8095 149.508L78.0595 153.968C78.9995 148.588 80.1795 143.278 81.8995 138.118 82.5795 136.088 83.3995 134.008 84.9795 132.608 86.5795 131.198 89.1795 130.708 90.8195 132.078 92.3095 133.308 92.4895 135.498 92.5495 137.428 92.7195 142.588 92.8895 147.748 93.0595 152.928L94.7795 158.028C97.2095 152.418 100.17 147.038 103.6 141.978 104.74 140.298 106 138.588 107.8 137.648 109.6 136.708 112.1 136.768 113.4 138.338 114.71 139.888 114.38 142.178 113.99 144.178 111.84 155.078 109.71 165.988 107.56 176.888L107.32 181.658C110.87 179.068 114.07 175.918 117.36 172.958 122.55 168.318 128.55 163.908 135.48 163.428 138.61 163.218 142.39 164.338 143.23 167.368 143.89 169.798 142.36 172.228 140.89 174.258 131.62 187.058 121.41 199.188 112.91 212.508 104.4 225.818 97.3895 240.578 95.9695 256.318 90.7095 314.228 135.54 364.908 227.9 314.228L230.26 312.248C232.62 316.208 234.8 320.258 236.68 324.468 240.78 333.688 243.27 343.608 244.04 353.668z"></path>
  <path fill="#fff" d="M380.609 46.4828C368.909 50.2228 357.719 55.5628 347.459 62.3128L344.609 64.4728C344.209 64.1928 343.799 63.9028 343.379 63.6328C338.569 60.5828 332.139 59.7428 326.639 61.2028C321.669 56.3928 312.879 55.0728 306.919 58.5728C303.299 55.7028 297.329 55.9528 294.049 59.1928C291.609 56.4628 287.349 55.7528 283.959 57.1328C280.569 58.5128 278.099 61.7028 277.129 65.2228C276.159 68.7428 276.559 72.5428 277.769 75.9928C278.419 77.8628 279.339 79.7028 280.839 80.9928C282.349 82.2728 284.529 82.9028 286.359 82.1428L289.359 81.8628C289.849 83.3228 290.499 84.7028 291.519 85.8128C291.889 86.2128 292.319 86.5728 292.779 86.8528L292.769 88.6928C293.659 89.9128 294.759 90.9328 296.019 91.7828L290.669 93.2028C286.139 95.1928 281.789 97.6328 277.709 100.453C275.189 102.183 272.789 104.073 270.479 106.103L268.309 106.923C238.729 102.663 208.779 101.063 178.919 102.143C177.129 102.193 175.349 102.263 173.569 102.353C153.419 103.263 133.339 105.403 113.449 108.763L120.279 100.703C156.939 75.0728 198.129 55.9128 241.339 44.3828L247.449 45.0028C291.829 45.4928 336.219 45.9928 380.609 46.4828Z"></path>
  <path fill="#fff" d="M330.75 154.48L327.81 156.77C291.87 177.91 248.38 185.92 207.27 178.98C207.08 178.94 206.88 178.91 206.69 178.87C202.94 178.22 199.07 177.27 196.33 174.66C193.3 171.79 192.25 167.47 191.32 163.39C187.18 145.2 183.05 127.01 178.91 108.82V102.12C208.77 101.04 238.72 102.64 268.3 106.9L270.47 106.08C272.77 104.05 275.18 102.16 277.7 100.43L280.31 101.33C289.78 103.94 296.71 112.01 302.06 120.26C307.42 128.49 312.69 136.79 319.38 143.99C323.29 148.19 327.07 151.61 330.75 154.48Z"></path>
  <path fill="#fff" d="M366.34 278.91C361.13 288.83 354.49 297.95 348.49 307.41 345.01 312.9 341.74 318.53 339.1 324.47 335.9 331.72 333.65 339.4 332.48 347.24 331.98 350.53 331.66 353.85 331.54 357.17 331.29 363.77 331.72 370.66 328.93 376.64 327.19 380.39 324.29 383.41 320.83 385.69 317.91 387.62 314.59 389.01 311.2 389.87L311.09 382.4C310.6 376.76 311.53 371.09 311.22 365.44 310.92 359.79 309.06 353.78 304.43 350.53 302.1 348.9 299.35 348.16 296.5 347.79L296.18 342.38C304.6 320.2 313.06 297.91 317.55 274.62 319.33 265.38 320.42 255.49 316.77 246.82 313.12 238.13 303.23 231.44 294.29 234.4 292.11 235.12 290.17 236.36 288.52 237.95 287.91 237.39 287.25 236.91 286.51 236.5 281.93 233.97 276.38 235.68 272.45 239.3 269.29 236.61 265.4 234.95 261.3 235.14 253.96 235.5 247.89 241.72 245.63 248.71 243.36 255.71 244.17 263.32 245.52 270.55 250.16 295.53 260.78 319.02 273 341.29L276.81 347.85C275.92 347.99 275.04 348.17 274.16 348.38 271.76 348.96 269.38 349.88 267.57 351.55 263.89 355 263.56 360.7 264.14 365.7 264.72 370.71 265.96 375.86 264.51 380.69L264.21 389.78C257.99 388.14 252.02 384.67 248.46 379.45 247.84 378.57 247.3 377.63 246.85 376.65 244.05 370.67 244.49 363.78 244.24 357.18 244.19 356.02 244.13 354.84 244.03 353.68 243.26 343.62 240.77 333.7 236.69 324.48 234.82 320.27 232.63 316.22 230.27 312.26 223.6 301.04 215.55 290.52 209.46 278.92 194.46 250.32 192.39 215.24 203.93 185.07L206.68 178.89C206.87 178.93 207.07 178.96 207.26 179 248.37 185.94 291.86 177.93 327.8 156.79L330.74 154.5C344.09 164.92 356.21 168.26 369.04 176.66L371.85 185.07C383.4 215.23 381.33 250.32 366.34 278.91zM183.92 290.068C183.54 291.068 182.54 291.678 181.58 292.158 175.88 294.958 169.11 295.467 163.06 293.557 162.19 284.357 162.5 275.057 164.01 265.957L167.53 261.207C167.52 261.107 167.51 261.028 167.49 260.938L171.11 264.117C175.84 271.227 179.95 278.737 183.38 286.547 183.88 287.657 184.36 288.928 183.92 290.068z"></path>
  <path fill="#fff" d="M311.09 382.401L311.2 389.871C311.12 389.891 311.02 389.921 310.94 389.941C303.44 391.771 272.35 391.771 264.87 389.941C264.66 389.891 264.44 389.831 264.23 389.771L264.53 380.681C265.98 375.851 264.74 370.701 264.16 365.691C263.58 360.681 263.91 354.991 267.59 351.541C269.39 349.871 271.78 348.951 274.18 348.371C275.06 348.161 275.94 347.981 276.83 347.841C281.37 347.121 286.05 347.251 290.66 347.391C292.61 347.451 294.59 347.531 296.52 347.781C299.37 348.151 302.12 348.901 304.45 350.521C309.08 353.771 310.94 359.791 311.24 365.431C311.53 371.091 310.61 376.761 311.09 382.401Z"></path>
  <path fill="#fff" d="M317.56 274.623C313.07 297.913 304.62 320.213 296.19 342.383L296.51 347.793C294.58 347.543 292.59 347.463 290.65 347.403 286.03 347.263 281.36 347.133 276.82 347.853L273.01 341.293C260.79 319.023 250.17 295.533 245.53 270.553 244.18 263.313 243.37 255.713 245.64 248.713 247.91 241.723 253.97 235.493 261.31 235.143 265.42 234.953 269.31 236.613 272.46 239.303 276.39 235.683 281.94 233.973 286.52 236.503 287.26 236.903 287.92 237.393 288.53 237.953 290.18 236.363 292.11 235.133 294.3 234.403 303.25 231.453 313.13 238.143 316.78 246.823 320.43 255.493 319.34 265.373 317.56 274.623zM302.2 447.227L300.99 455.287C298.4 463.097 289.93 468.477 281.77 467.537 273.61 466.587 266.61 459.387 265.88 451.197L265.1 445.867C270.89 448.297 277.57 449.247 283.89 449.427 290.04 449.597 296.45 449.207 302.2 447.227z"></path>
  <path fill="#fff" d="M322.4 420.403C320.99 429.503 316.75 438.573 309.16 443.793C307 445.273 304.66 446.403 302.21 447.233C296.46 449.213 290.05 449.603 283.9 449.433C277.58 449.253 270.9 448.303 265.11 445.873C260.6 443.963 256.64 441.163 253.83 437.113C245.2 424.633 251.68 407.253 247.57 392.643C247.57 392.643 246.04 385.633 248.5 379.453C252.06 384.673 258.03 388.153 264.25 389.783C264.46 389.843 264.68 389.903 264.89 389.953C272.38 391.783 303.46 391.783 310.96 389.953C311.04 389.933 311.14 389.903 311.22 389.883C314.61 389.033 317.94 387.643 320.85 385.703L321.67 392.883C322.73 402.033 323.81 411.303 322.4 420.403Z"></path>
  <path fill="#231F20" d="M320.401 61.7295C316.031 62.9195 311.191 64.4096 308.211 68.0496C304.641 72.4096 305.001 78.0396 306.511 83.1596C307.831 87.6396 309.541 93.4295 313.931 95.8495C315.951 96.9695 318.551 97.4196 320.761 96.6196C323.261 95.7096 324.821 93.5296 325.231 90.9396C325.451 89.5196 325.381 88.1396 325.191 86.7196C324.991 85.2096 324.631 83.5596 324.971 82.0396C325.451 79.8896 327.481 78.3996 329.651 78.3996C332.551 78.3896 332.551 73.8896 329.651 73.8996C325.301 73.9096 321.221 77.1196 320.511 81.4796C320.091 84.0896 320.911 86.5896 320.881 89.1896C320.861 90.7296 320.381 92.3395 318.641 92.5295C314.631 92.9595 312.891 87.9196 311.841 84.9796C310.481 81.1596 308.671 76.1695 310.751 72.2795C312.821 68.3995 317.671 67.1395 321.601 66.0695C324.391 65.3095 323.211 60.9695 320.401 61.7295Z"></path>
  <path fill="#231F20" d="M307.63 88.5565C305.82 89.6665 304.05 87.7365 303.2 86.2965C301.86 84.0365 300.84 81.4465 300.05 78.9465C298.66 74.5665 298.37 69.2465 302.03 65.8665C304.16 63.8965 300.97 60.7265 298.85 62.6865C293.61 67.5265 293.92 75.2565 296.16 81.4565C297.29 84.5865 298.58 88.1065 300.82 90.6265C303.06 93.1565 306.9 94.2765 309.91 92.4365C312.36 90.9265 310.1 87.0265 307.63 88.5565Z"></path>
  <path fill="#231F20" d="M297.219 85.0934C295.839 86.0334 294.159 85.3634 293.109 84.2134C291.519 82.4634 291.069 79.8334 290.539 77.6134C289.479 73.2234 288.389 67.6534 292.149 64.1934C294.289 62.2334 291.099 59.0534 288.969 61.0134C283.559 65.9834 284.919 73.7334 286.509 80.0534C287.299 83.1834 288.429 86.4234 291.119 88.4234C293.499 90.1934 296.949 90.7234 299.499 88.9734C300.499 88.2834 300.949 86.9934 300.309 85.8934C299.719 84.9034 298.219 84.4034 297.219 85.0934Z"></path>
  <path fill="#231F20" d="M285.75 79.9624C282.61 81.0724 280.68 77.6424 279.84 75.1424C278.74 71.8624 278.38 68.2824 279.55 64.9624C281.36 59.8324 288.08 56.1524 292.44 60.7724C293.29 61.6724 294.75 61.5824 295.62 60.7724C298.4 58.1624 302.81 58.2724 305.77 60.5124C306.4 60.9824 307.4 60.8724 308.04 60.5124C311.36 58.6324 315.35 58.4324 318.98 59.4424C320.83 59.9624 322.63 60.7924 324.14 61.9924C325.14 62.7824 325.82 63.6324 327.23 63.3724C328.34 63.1624 329.41 62.8924 330.54 62.8124C335 62.5024 339.49 63.5724 343.15 66.1824C346.45 68.5524 348.82 72.0424 350.43 75.7324C354.14 84.2824 353.67 93.8224 355.32 102.832C356.17 107.502 357.63 112.082 360.15 116.132C362.45 119.822 365.34 123.152 368.36 126.262C374.73 132.812 381.93 138.392 389.16 143.942C396.29 149.412 403.33 155.002 410.17 160.842C421.26 170.302 432.01 180.442 440.86 192.092C448.69 202.402 454.87 213.842 458.91 226.162C463.46 240.032 465.67 254.742 466.37 269.292C467.1 284.502 464.28 299.892 457.88 313.732C451.86 326.752 442.86 338.402 431.49 347.202C420.46 355.732 407.15 361.522 393.27 363.202C377.99 365.062 362.51 362.142 348.64 355.562C344.75 353.722 340.99 351.612 337.36 349.302C334.91 347.742 332.65 351.642 335.09 353.192C348.68 361.812 364.18 367.442 380.34 368.182C394.58 368.832 408.83 365.532 421.45 358.952C434.02 352.392 444.77 342.662 452.98 331.142C461.51 319.182 467.21 305.172 469.6 290.682C472.13 275.362 470.75 259.662 468.07 244.452C465.77 231.432 461.82 218.712 455.69 206.962C449.57 195.242 441.36 184.732 432.21 175.222C420.97 163.542 408.39 153.212 395.61 143.282C388.6 137.832 381.47 132.572 375 126.472C368.5 120.352 362.55 113.702 360.36 104.832C358.14 95.8324 358.77 86.3524 355.89 77.4924C353.24 69.3124 347.84 61.9924 339.35 59.3424C335.06 58.0024 330.4 57.9424 326.06 59.0424C326.79 59.2324 327.52 59.4324 328.25 59.6224C322.38 54.1024 312.89 52.6224 305.8 56.6424C306.56 56.6424 307.31 56.6424 308.07 56.6424C303.49 53.1724 296.61 53.7324 292.47 57.6124C293.53 57.6124 294.59 57.6124 295.65 57.6124C292.67 54.4624 287.85 53.4024 283.77 54.8224C279.65 56.2524 276.65 59.7424 275.23 63.7924C273.65 68.3224 274.29 73.5324 276.1 77.8924C277.87 82.1324 282.03 86.0624 286.96 84.3224C289.66 83.3424 288.5 78.9924 285.75 79.9624Z"></path>
  <path fill="#231F20" d="M335.429 112.847C331.549 105.797 325.349 99.9875 318.009 96.6575 313.829 94.7575 309.469 93.9475 305.029 92.9075 301.309 92.0375 297.119 90.7475 294.709 87.5475 293.979 86.5775 292.769 86.0775 291.629 86.7375 290.679 87.2975 290.089 88.8375 290.819 89.8175 293.399 93.2475 297.059 95.2875 301.109 96.5275 305.539 97.8775 310.169 98.3375 314.509 100.027 321.739 102.837 327.819 108.357 331.539 115.117 332.939 117.647 336.829 115.387 335.429 112.847zM279.71 103.498C292.06 107.018 298.54 119.178 305.17 129.098 309.2 135.128 313.48 141.028 318.48 146.308 323.07 151.148 328.12 155.548 333.59 159.358 342.5 165.558 352.53 169.688 361.95 174.988 366.92 177.788 371.68 180.958 376.03 184.648 381.6 189.368 386.49 194.828 391.22 200.358 405.98 217.608 419.38 237.828 423.51 260.538 426.58 277.398 423.59 296.768 411.57 309.838 405.34 316.608 397.02 321.238 387.9 322.598 378.65 323.978 369.15 321.588 361.36 316.468 359.21 315.058 357.23 313.438 355.35 311.678 353.24 309.698 350.05 312.868 352.17 314.858 359.91 322.148 369.78 326.848 380.46 327.408 390.21 327.918 400.07 324.838 407.92 319.078 423.53 307.628 430.15 287.568 429 268.748 427.62 246.128 416.21 225.248 402.76 207.538 394.17 196.228 384.73 185.008 373.11 176.708 364 170.198 353.63 165.988 343.93 160.508 332.3 153.948 322.29 145.078 314.32 134.358 310.03 128.588 306.38 122.418 302.26 116.538 298.62 111.338 294.4 106.428 289.05 102.908 286.54 101.258 283.79 99.9883 280.9 99.1683 278.12 98.3683 276.93 102.708 279.71 103.498zM72.4894 205.731C75.9594 199.781 81.1694 195.041 87.3994 192.101 90.8194 190.481 94.5194 189.761 98.1294 188.701 101.909 187.591 105.379 185.871 108.559 183.541 114.559 179.151 119.399 173.311 125.689 169.311 128.629 167.441 131.969 165.891 135.499 165.671 137.579 165.541 141.509 166.071 141.129 168.981 140.909 170.721 139.539 172.331 138.549 173.691 137.309 175.401 136.049 177.091 134.779 178.781 132.289 182.101 129.759 185.391 127.239 188.681 122.109 195.391 117.019 202.141 112.379 209.201 103.729 222.341 96.3294 236.921 94.1594 252.661 92.8094 262.451 93.0594 272.511 94.8294 282.221 96.3894 290.821 99.3194 299.251 103.739 306.811 108.079 314.221 113.879 320.701 120.859 325.711 128.169 330.961 136.749 334.381 145.579 336.011 156.359 337.991 167.399 337.491 178.139 335.521 192.019 332.971 205.379 327.941 218.059 321.831 221.769 320.041 225.429 318.151 229.039 316.171 231.579 314.781 229.309 310.891 226.769 312.281 213.599 319.491 199.739 325.641 185.159 329.361 174.219 332.161 162.849 333.541 151.579 332.351 142.769 331.421 134.049 328.691 126.469 324.031 119.539 319.771 113.559 313.801 109.159 307.011 104.429 299.721 101.469 291.991 99.6494 283.451 97.7794 274.681 97.3894 265.451 98.2294 256.291 99.6694 240.551 106.909 225.931 115.369 212.831 119.949 205.731 125.009 198.961 130.129 192.251 132.689 188.891 135.269 185.541 137.819 182.171 139.089 180.481 140.359 178.791 141.609 177.091 142.779 175.491 144.019 173.911 144.819 172.081 146.379 168.531 145.529 164.611 142.079 162.591 139.079 160.821 135.389 160.921 132.099 161.651 124.669 163.311 118.759 168.611 113.319 173.611 110.639 176.071 107.959 178.571 104.929 180.601 101.619 182.821 98.1094 184.071 94.2694 185.081 90.5694 186.051 86.9694 187.171 83.5794 188.991 80.4594 190.661 77.5594 192.791 75.0194 195.251 72.5194 197.671 70.3594 200.451 68.6094 203.451 67.1394 205.971 71.0294 208.231 72.4894 205.731z"></path>
  <path fill="#231F20" d="M92.9002 169.786C95.7402 160.306 99.9902 151.286 105.56 143.106C106.61 141.556 107.99 139.476 110.04 139.266C111.85 139.076 112.19 140.536 112.07 142.046C111.87 144.506 111.16 147.006 110.69 149.426C110.15 152.196 109.6 154.956 109.06 157.726C107.85 163.916 106.63 170.096 105.42 176.286C104.86 179.116 109.2 180.326 109.76 177.486C110.99 171.216 112.22 164.956 113.45 158.686C114.06 155.596 114.66 152.496 115.27 149.406C115.8 146.686 116.77 143.696 116.59 140.896C116.42 138.196 114.94 135.786 112.23 135.036C109.59 134.296 106.92 135.236 104.9 136.956C102.85 138.706 101.4 141.196 99.9802 143.446C98.4802 145.826 97.0702 148.266 95.7802 150.766C92.8302 156.466 90.4102 162.446 88.5702 168.596C87.7302 171.376 92.0702 172.566 92.9002 169.786Z"></path>
  <path fill="#231F20" d="M78.4191 166.33C79.5391 158.41 80.6891 150.47 82.8491 142.76C83.3491 140.96 83.8791 139.14 84.5591 137.39C85.0791 136.06 85.8291 134.51 87.1691 133.85C90.4991 132.22 90.2991 136.87 90.3691 138.88C90.5191 143.56 90.6791 148.24 90.8291 152.92C90.9191 155.81 95.4191 155.82 95.3291 152.92C95.1691 148.08 95.0091 143.24 94.8491 138.39C94.7791 136.33 94.7391 134.22 93.8291 132.33C92.9591 130.52 91.2291 129.32 89.2491 129.08C84.6291 128.51 81.6891 132.33 80.2091 136.18C78.5891 140.41 77.5391 144.9 76.6391 149.32C75.5791 154.55 74.8191 159.84 74.0691 165.12C73.8991 166.32 74.3591 167.54 75.6391 167.89C76.7091 168.19 78.2491 167.54 78.4191 166.33Z"></path>
  <path fill="#231F20" d="M64.9399 171.978C63.4699 164.108 63.0099 156.078 63.5299 148.088C63.6599 146.128 63.8199 144.168 64.0899 142.218C64.2699 140.888 64.5199 139.468 65.1399 138.268C65.6299 137.338 66.3399 136.518 67.4799 136.598C68.7999 136.688 69.8699 137.768 70.4799 138.848C71.4199 140.508 71.6999 142.488 72.0199 144.338C72.3999 146.538 72.8699 148.628 73.8699 150.638C75.1599 153.228 79.0399 150.958 77.7599 148.368C75.8599 144.538 76.5099 139.938 74.1599 136.218C72.0299 132.848 67.4099 130.698 63.7799 133.148C60.6099 135.288 59.9399 139.278 59.5199 142.798C58.9599 147.508 58.7399 152.258 58.8599 156.998C58.9999 162.428 59.6099 167.838 60.5999 173.168C60.8199 174.368 62.2699 175.038 63.3699 174.738C64.6199 174.398 65.1599 173.178 64.9399 171.978Z"></path>
  <path fill="#231F20" d="M59.0204 155.102C56.5204 153.002 56.5504 149.122 54.7004 146.522 52.4604 143.372 48.4704 142.302 45.1704 144.602 41.7604 146.992 41.0404 151.082 41.0304 154.992 41.0204 159.232 41.7204 163.462 42.5704 167.602 43.4004 171.652 44.4104 175.682 44.9504 179.782 45.4004 183.212 45.3804 186.682 45.3904 190.132 45.4204 196.582 45.3004 203.032 45.1904 209.482 44.9504 224.032 44.7704 238.602 45.6104 253.142 46.5004 268.532 48.4804 283.952 52.6204 298.832 55.7104 309.922 59.8804 320.802 66.2504 330.442 71.6004 338.542 78.1504 345.852 85.5104 352.172 93.6504 359.172 102.76 365.042 112.51 369.522 123.18 374.422 134.51 377.732 146.15 379.312 159.41 381.112 172.82 380.722 186.01 378.482 201.45 375.852 216.37 370.652 230.44 363.842 234.31 361.972 238.11 359.972 241.85 357.862 244.37 356.442 242.11 352.552 239.58 353.972 225.78 361.722 211.13 367.982 195.75 371.832 182.94 375.032 169.72 376.492 156.52 375.792 144.98 375.182 133.55 372.852 122.7 368.872 112.87 365.272 103.56 360.242 95.1104 354.072 87.4604 348.482 80.5004 341.812 74.6104 334.362 69.1004 327.402 64.5404 319.262 61.2904 310.792 55.9504 296.872 52.9004 282.152 51.2804 267.372 49.7004 252.962 49.4004 238.452 49.4904 223.962 49.5804 211.132 50.0504 198.292 49.8304 185.462 49.6904 177.342 47.2504 169.622 46.0304 161.652 45.7404 159.742 45.5604 157.812 45.5204 155.882 45.4804 154.042 45.4404 152.052 46.1304 150.312 46.5704 149.222 47.5004 148.042 48.7304 147.822 49.9804 147.602 50.8104 148.692 51.3504 149.662 52.9704 152.552 53.1204 156.012 55.8204 158.272 56.7504 159.052 58.0904 159.182 59.0004 158.272 59.8304 157.482 59.9604 155.882 59.0204 155.102zM114.031 110.907C133.861 107.577 153.901 105.457 173.991 104.547 193.961 103.647 213.981 103.927 233.911 105.407 245.211 106.247 256.491 107.457 267.711 109.077 268.911 109.247 270.131 108.777 270.481 107.507 270.771 106.447 270.121 104.917 268.911 104.737 248.761 101.847 228.461 100.127 208.111 99.667 187.721 99.207 167.311 99.9871 147.011 102.007 135.571 103.147 124.171 104.677 112.841 106.577 111.641 106.777 110.971 108.257 111.271 109.347 111.611 110.607 112.831 111.107 114.031 110.907z"></path>
  <path fill="#231F20" d="M272.069 107.668C277.959 102.498 284.639 98.2981 291.799 95.1281 292.909 94.6381 293.169 93.0181 292.609 92.0481 291.939 90.9081 290.649 90.7481 289.529 91.2381 282.009 94.5681 275.069 99.0681 268.889 104.488 267.979 105.288 268.069 106.848 268.889 107.668 269.789 108.578 271.149 108.478 272.069 107.668zM348.59 64.2567C358.72 57.6167 369.68 52.3567 381.21 48.6567 383.59 47.8867 383.21 44.2667 380.61 44.2367 363.32 44.0367 346.03 43.8467 328.74 43.6467 311.45 43.4467 294.16 43.2567 276.87 43.0567 267.06 42.9467 257.25 42.8367 247.45 42.7267 244.55 42.6967 244.55 47.1967 247.45 47.2267 264.74 47.4267 282.03 47.6167 299.32 47.8167 316.61 48.0167 333.9 48.2067 351.19 48.4067 361 48.5167 370.81 48.6267 380.61 48.7367 380.41 47.2667 380.21 45.7867 380.01 44.3167 368.12 48.1367 356.76 53.5267 346.32 60.3667 343.9 61.9467 346.16 65.8467 348.59 64.2567zM121.409 102.618C135.679 92.6583 150.619 83.6583 166.109 75.7083 181.559 67.7883 197.539 60.9083 213.919 55.1683 223.149 51.9283 232.489 49.0483 241.939 46.5283 244.729 45.7783 243.549 41.4383 240.739 42.1883 223.849 46.7083 207.279 52.3683 191.159 59.1383 174.929 65.9483 159.149 73.8283 143.989 82.7683 135.499 87.7683 127.219 93.1083 119.139 98.7483 118.139 99.4383 117.679 100.718 118.329 101.828 118.909 102.798 120.409 103.318 121.409 102.618zM176.75 109.417C180.15 124.357 183.54 139.307 186.94 154.247 187.77 157.877 188.56 161.517 189.42 165.147 190.12 168.107 190.98 171.167 192.67 173.727 196.4 179.387 202.98 180.607 209.22 181.557 235.41 185.577 262.41 183.757 287.85 176.367 302.2 172.207 316.06 166.267 328.95 158.707 331.45 157.247 329.18 153.347 326.68 154.817 304.65 167.737 279.79 175.767 254.38 178.277 241.69 179.527 228.87 179.447 216.21 177.987 213.09 177.627 209.98 177.187 206.89 176.627 204.07 176.117 201.04 175.477 198.69 173.717 196.51 172.087 195.35 169.547 194.57 167.007 193.59 163.797 192.96 160.457 192.22 157.187 188.51 140.867 184.8 124.537 181.09 108.217 180.45 105.397 176.11 106.597 176.75 109.417z"></path>
  <path fill="#231F20" d="M369.699 185.657C375.729 201.527 378.019 218.617 376.589 235.527 375.159 252.507 369.819 268.867 361.179 283.527 352.189 298.777 340.809 312.647 334.689 329.457 331.489 338.257 329.679 347.587 329.299 356.947 328.969 365.077 329.709 373.967 323.709 380.377 321.249 383.007 318.139 385.007 314.809 386.357 313.259 386.977 311.649 387.497 310.019 387.857 309.659 387.937 309.299 388.007 308.939 388.067 308.749 388.097 308.559 388.127 308.359 388.157 307.839 388.237 308.609 388.137 308.059 388.197 302.849 388.807 297.589 388.967 292.359 389.047 286.409 389.137 280.439 389.077 274.489 388.757 272.199 388.637 269.909 388.467 267.629 388.187 267.259 388.137 267.959 388.247 267.339 388.147 267.149 388.117 266.959 388.087 266.769 388.057 266.409 387.997 266.049 387.927 265.699 387.847 264.029 387.477 262.379 386.947 260.799 386.287 257.479 384.917 254.379 382.897 251.949 380.247 249.209 377.267 247.759 373.567 247.129 369.597 246.449 365.277 246.669 360.847 246.469 356.487 246.259 351.827 245.679 347.167 244.769 342.587 242.969 333.517 239.709 324.807 235.349 316.657 231.209 308.907 226.229 301.647 221.409 294.317 216.629 287.047 212.009 279.657 208.449 271.697 205.019 264.037 202.529 255.937 200.909 247.707 197.659 231.167 198.109 213.867 202.309 197.547 203.349 193.517 204.609 189.557 206.089 185.667 206.519 184.527 205.609 183.197 204.519 182.897 203.249 182.547 202.189 183.327 201.749 184.467 195.569 200.727 193.219 218.427 194.709 235.747 196.219 253.297 201.589 270.227 210.499 285.427 219.659 301.067 231.579 315.237 237.449 332.617 240.479 341.587 241.889 350.827 242.079 360.277 242.169 364.787 242.229 369.387 243.419 373.777 244.519 377.807 246.669 381.447 249.669 384.357 254.439 388.987 260.889 391.817 267.449 392.667 272.689 393.347 278.009 393.467 283.279 393.547 289.369 393.637 295.479 393.577 301.559 393.247 306.639 392.967 311.599 392.517 316.349 390.567 323.949 387.447 330.269 381.717 332.419 373.577 333.599 369.107 333.619 364.437 333.719 359.847 333.819 355.147 334.169 350.477 334.969 345.847 336.569 336.707 339.599 327.927 343.909 319.717 348.129 311.677 353.279 304.177 358.259 296.607 363.159 289.157 367.869 281.577 371.479 273.407 374.999 265.417 377.639 257.077 379.299 248.507 382.609 231.357 382.189 213.507 377.869 196.577 376.819 192.477 375.539 188.447 374.029 184.497 373.599 183.357 372.509 182.577 371.259 182.927 370.179 183.187 369.259 184.517 369.699 185.657zM235.76 67.7389C221.09 74.7189 206.43 81.6889 191.76 88.6689 185.2 91.7889 178.28 94.6989 172.95 99.7689 168.17 104.319 165.12 110.339 163.09 116.539 160.88 123.269 159.72 130.359 158.73 137.359 157.62 145.219 156.92 153.119 156.6 161.049 155.95 176.889 156.75 192.759 158.28 208.529 160.01 226.369 162.68 244.099 165.37 261.819 165.55 263.019 167.07 263.689 168.14 263.389 169.43 263.039 169.89 261.829 169.71 260.619 165.05 229.899 160.42 198.969 160.91 167.809 161.15 152.889 162.35 137.659 165.9 123.129 167.38 117.089 169.49 110.979 173.35 106.009 177.54 100.619 183.62 97.5189 189.65 94.6389 205.77 86.9489 221.9 79.2989 238.03 71.6289 239.13 71.1089 239.41 69.5389 238.84 68.5489 238.18 67.4289 236.86 67.2189 235.76 67.7389z"></path>
  <path fill="#231F20" d="M161.839 265.351C160.329 274.681 159.939 284.131 160.819 293.551 160.919 294.581 161.459 295.411 162.469 295.721 166.919 297.091 171.639 297.281 176.199 296.361 178.449 295.901 180.669 295.131 182.719 294.091 184.699 293.091 186.349 291.451 186.339 289.091 186.329 286.771 184.939 284.481 183.989 282.441 182.939 280.191 181.839 277.971 180.679 275.771 178.359 271.381 175.809 267.111 173.069 262.971 171.479 260.571 167.579 262.821 169.179 265.241 173.829 272.251 178.099 279.691 181.349 287.461 181.549 287.931 182.019 288.711 181.819 289.241 181.619 289.781 180.489 290.171 180.059 290.381 178.389 291.171 176.589 291.701 174.789 292.051 171.079 292.771 167.259 292.481 163.659 291.371 164.209 292.091 164.759 292.821 165.309 293.541 164.469 284.551 164.719 275.461 166.169 266.541 166.359 265.341 165.859 264.121 164.599 263.771 163.529 263.491 162.029 264.151 161.839 265.351zM266.689 381.288C268.569 374.628 266.019 368.088 266.179 361.388 266.239 358.858 266.709 356.088 268.319 354.038 270.199 351.658 273.309 350.798 276.149 350.238 279.509 349.578 282.959 349.498 286.379 349.548 289.709 349.588 293.129 349.568 296.429 350.028 299.099 350.398 301.919 351.188 303.979 353.038 305.989 354.838 307.259 357.228 308.009 359.798 310.179 367.138 308.239 374.908 308.829 382.408 308.929 383.618 309.799 384.658 311.079 384.658 312.219 384.658 313.429 383.628 313.329 382.408 312.729 374.838 314.469 367.168 312.639 359.678 311.049 353.188 306.839 347.978 300.249 346.218 296.819 345.308 293.219 345.228 289.699 345.118 285.759 345.008 281.799 344.938 277.879 345.438 274.399 345.888 270.689 346.598 267.729 348.598 264.939 350.468 263.109 353.298 262.299 356.548 261.379 360.218 261.659 363.968 262.159 367.668 262.719 371.778 263.509 376.018 262.359 380.098 261.569 382.888 265.909 384.078 266.689 381.288zM274.939 340.161C267.499 326.571 260.659 312.621 255.409 298.031 252.819 290.821 250.609 283.461 248.919 275.981 247.259 268.611 245.539 260.641 246.859 253.081 247.919 247.011 251.279 241.011 257.119 238.401 262.709 235.901 268.669 238.331 272.629 242.571 277.469 247.751 278.779 255.051 279.029 261.901 279.109 264.261 280.209 277.421 274.579 274.811 271.549 273.401 271.129 269.091 270.549 266.231 269.789 262.501 269.099 258.741 269.029 254.921 268.909 248.531 270.869 242.201 276.759 238.941 278.929 237.741 281.519 237.141 283.949 237.851 286.719 238.651 288.559 240.991 289.789 243.471 291.279 246.501 291.959 249.971 292.519 253.271 293.189 257.251 293.439 261.321 293.329 265.351 293.289 267.051 293.269 268.821 292.959 270.491 292.759 271.551 292.479 272.971 291.619 273.711 289.869 275.221 288.189 271.681 287.709 270.401 285.149 263.641 283.289 255.501 285.129 248.351 286.579 242.731 290.489 237.381 296.429 236.141 302.129 234.951 307.829 238.281 311.449 242.441 315.999 247.671 317.129 254.891 316.929 261.601 316.699 269.331 314.909 277.011 313.089 284.501 309.269 300.201 303.899 315.471 298.239 330.601 296.849 334.331 295.429 338.051 294.019 341.771 293.589 342.911 294.499 344.241 295.589 344.541 296.859 344.891 297.919 344.111 298.359 342.971 304.799 326.011 311.249 309.011 315.959 291.471 318.249 282.941 320.369 274.191 321.199 265.371 321.949 257.431 321.269 248.651 316.649 241.881 312.689 236.061 306.149 231.521 298.929 231.431 291.579 231.331 285.349 236.341 282.369 242.821 278.749 250.701 279.759 259.481 282.099 267.591 283.119 271.101 284.189 275.171 287.319 277.431 290.349 279.621 294.279 278.381 296.049 275.251 297.929 271.941 297.839 267.591 297.859 263.901 297.879 259.301 297.419 254.681 296.519 250.171 295.169 243.351 292.229 235.001 284.529 233.331 277.749 231.861 270.879 236.161 267.479 241.861 263.079 249.231 264.459 258.541 266.049 266.511 266.809 270.361 267.479 274.841 270.659 277.521 273.579 279.981 278.009 280.491 280.769 277.471 282.989 275.041 283.459 271.561 283.559 268.401 283.689 264.011 283.599 259.611 282.949 255.261 281.809 247.561 278.289 240.191 271.609 235.831 265.429 231.801 257.589 231.971 251.679 236.431 237.329 247.261 242.089 267.891 245.949 282.691 250.339 299.521 257.199 315.631 265.079 331.111 267.019 334.911 269.019 338.681 271.069 342.421 272.449 344.971 276.339 342.701 274.939 340.161zM245.39 393.238C248.22 403.528 245.88 414.328 247.2 424.798 247.85 429.928 249.36 434.948 252.52 439.118 255.64 443.228 259.86 446.108 264.59 448.068 269.21 449.988 274.17 450.918 279.13 451.388 284.55 451.908 290.07 451.868 295.47 451.108 300.95 450.338 306.43 448.588 310.93 445.288 315.15 442.188 318.46 438.028 320.74 433.318 326.89 420.648 325.5 406.418 323.9 392.878 323.76 391.668 322.97 390.628 321.65 390.628 320.54 390.628 319.26 391.668 319.4 392.878 320.76 404.398 322.22 416.488 318.26 427.668 316.69 432.098 314.23 436.288 310.82 439.548 307.19 443.028 302.59 445.078 297.72 446.158 292.73 447.268 287.53 447.368 282.44 447.128 277.78 446.908 273.13 446.238 268.68 444.798 264.47 443.438 260.48 441.278 257.44 438.028 254.26 434.618 252.6 430.248 251.84 425.708 250.93 420.248 251.27 414.608 251.34 409.098 251.41 403.388 251.26 397.598 249.74 392.058 248.96 389.248 244.62 390.438 245.39 393.238z"></path>
  <path fill="#231F20" d="M263.629 451.203C264.349 458.423 268.949 465.033 275.599 468.063 282.279 471.113 290.049 470.143 295.909 465.743 299.269 463.213 301.789 459.883 303.169 455.893 304.109 453.153 299.769 451.973 298.829 454.693 296.999 459.993 292.159 463.893 286.749 465.073 281.099 466.303 275.479 463.883 271.799 459.583 269.809 457.253 268.439 454.253 268.129 451.203 268.009 449.993 267.179 448.953 265.879 448.953 264.759 448.953 263.509 449.983 263.629 451.203zM258.351 432.751C267.701 434.631 277.201 434.851 286.631 433.451 287.831 433.271 288.501 431.751 288.201 430.681 287.851 429.391 286.641 428.931 285.431 429.111 276.851 430.381 268.041 430.131 259.541 428.411 256.721 427.841 255.511 432.171 258.351 432.751zM277 420.176C289.41 423.486 302.61 422.376 314.35 417.216 315.46 416.726 315.72 415.096 315.16 414.136 314.49 412.986 313.2 412.836 312.08 413.326 301.48 417.986 289.36 418.806 278.2 415.836 275.4 415.096 274.2 419.426 277 420.176zM257.131 404.848C272.691 408.788 288.921 409.348 304.721 406.588 305.921 406.378 306.591 404.908 306.291 403.818 305.941 402.548 304.721 402.038 303.521 402.248 288.541 404.868 273.061 404.238 258.321 400.508 255.521 399.798 254.321 404.138 257.131 404.848z"></path>
</svg>
