<svg xmlns="http://www.w3.org/2000/svg" viewBox="0 0 34 34" id="future">
  <g id="Icon">
    <path d="m28.748 25.168-1.815-2.723a1 1 0 0 0-1.664 1.11L26.9 26l-1.63 2.445a1 1 0 0 0 1.664 1.11l1.814-2.722A1.492 1.492 0 0 0 28.748 25.168ZM23.087 17.687 21 16.434v-.868l2.087-1.253A6.027 6.027 0 0 0 26 9.169V5h1a1 1 0 0 0 0-2H5A1 1 0 0 0 5 5H6V9.169a6.026 6.026 0 0 0 2.913 5.144L11 15.566v.868L8.914 17.687A6.025 6.025 0 0 0 6 22.831V27H5a1 1 0 0 0 0 2H18.6a2.494 2.494 0 0 1 .422-1.388L20.1 26l-1.076-1.613a2.5 2.5 0 1 1 4.161-2.772l.507.761a2.386 2.386 0 0 1 1.868-1.8A6.021 6.021 0 0 0 23.087 17.687ZM16 19a1 1 0 1 1 1-1A1 1 0 0 1 16 19Zm4.514-8.709L17 12.4V14a1 1 0 0 1-2 0V12.4l-3.514-2.109A1 1 0 0 1 11 9.434V8.5a.5.5 0 0 1 .5-.5h9a.5.5 0 0 1 .5.5v.934A1 1 0 0 1 20.514 10.291Z"></path>
    <path d="M21.933,22.445a1,1,0,1,0-1.664,1.11L21.9,26l-1.63,2.445a1,1,0,0,0,1.664,1.11l1.814-2.722a1.492,1.492,0,0,0,0-1.665Z"></path>
  </g>
</svg>
