<svg xmlns="http://www.w3.org/2000/svg" width="512" height="512" enable-background="new 0 0 512 512" viewBox="0 0 512 512" id="vision">
  <path d="M135.129 161.407c-3.313 0-6 2.687-6 6s2.687 6 6 6h10c3.313 0 6-2.687 6-6s-2.687-6-6-6H135.129zM95.129 161.407c-3.313 0-6 2.687-6 6s2.687 6 6 6h10c3.313 0 6-2.687 6-6s-2.687-6-6-6H95.129zM175.129 161.407c-3.313 0-6 2.687-6 6s2.687 6 6 6h10c3.313 0 6-2.687 6-6s-2.687-6-6-6H175.129zM432.075 171.529l3.909-4.134-3.921-4.123c-1.918-2.018-47.629-49.406-104.182-49.406-57.82 0-102.37 47.447-104.238 49.466l-3.777 4.084 3.786 4.075c1.877 2.019 46.621 49.456 104.229 49.456C384.698 220.947 430.168 173.547 432.075 171.529zM327.882 206.699c-21.098 0-38.263-17.165-38.263-38.262 0-21.098 17.165-38.263 38.263-38.263s38.263 17.165 38.263 38.263C366.145 189.535 348.979 206.699 327.882 206.699zM293.222 132.089c-9.602 9.16-15.603 22.063-15.603 36.348 0 12.685 4.732 24.278 12.513 33.131-25.503-9.718-45.299-26.474-53.531-34.17C245.145 159.385 266.18 141.572 293.222 132.089zM365.8 201.375c7.68-8.829 12.345-20.345 12.345-32.938 0-14.133-5.872-26.914-15.294-36.055 26.485 9.547 47.551 27.07 56.227 35.035C410.747 175.095 390.954 191.645 365.8 201.375z"></path>
  <path d="M353.612,150.521c-1.911-2.708-5.653-3.355-8.361-1.445s-3.355,5.653-1.445,8.361c2.319,3.289,3.545,7.163,3.545,11.205
			c0,10.735-8.733,19.469-19.469,19.469s-19.469-8.734-19.469-19.469s8.733-19.469,19.469-19.469c3.313,0,6-2.687,6-6s-2.687-6-6-6
			c-17.352,0-31.469,14.117-31.469,31.469s14.117,31.469,31.469,31.469s31.469-14.117,31.469-31.469
			C359.351,162.11,357.366,155.844,353.612,150.521z"></path>
  <path d="M50.589,90.742l215.775,27.369c0.256,0.032,0.511,0.048,0.763,0.048c2.977,0,5.56-2.214,5.944-5.245
			c0.417-3.287-1.91-6.29-5.197-6.707l-20.716-2.628c2.737-2.453,5.583-4.78,8.525-6.956c19.216-14.215,41.975-22.021,65.788-22.571
			c2.104-0.039,4.227-0.039,6.275,0c40.148,0.905,76.959,20.093,100.992,52.644c24.463,33.134,32.06,74.832,20.84,114.402
			l-19.808,69.882v132.994c0,3.313,2.687,6,6,6s6-2.687,6-6V312.647l19.353-68.277c12.24-43.17,3.955-88.659-22.731-124.803
			c-26.255-35.561-66.485-56.523-110.401-57.514c-2.232-0.042-4.458-0.041-6.768,0.001c-26.33,0.609-51.461,9.227-72.677,24.921
			c-5.931,4.387-11.515,9.313-16.636,14.67L52.099,78.838c-3.273-0.419-6.29,1.91-6.707,5.197S47.302,90.325,50.589,90.742z"></path>
  <path d="M51.336,253.776c0.252,0,0.507-0.016,0.763-0.048l124.208-15.755l-11.46,18.453c-3.481,5.601-4.038,12.312-1.525,18.411
			c2.512,6.099,7.63,10.47,14.042,11.994l15.488,3.683v57.97c0,16.415,13.351,29.77,29.761,29.77h72.003v65.725c0,3.313,2.687,6,6,6
			s6-2.687,6-6v-65.725h42.855l39.957-46.856c2.15-2.521,1.85-6.309-0.672-8.458c-2.522-2.15-6.311-1.85-8.459,0.672l-36.363,42.643
			h-43.28c-0.013,0-0.025-0.002-0.038-0.002s-0.025,0.002-0.038,0.002h-77.965c-9.793,0-17.761-7.971-17.761-17.77v-67.45
			l-24.713-5.878c-2.612-0.62-4.698-2.402-5.722-4.888c-1.024-2.487-0.798-5.224,0.622-7.509l16.601-26.731l76.234-9.669
			c3.287-0.417,5.614-3.42,5.197-6.707c-0.417-3.288-3.427-5.615-6.707-5.197l-79.062,10.028c-0.029,0.003-0.059,0.007-0.088,0.011
			l-136.626,17.33c-3.287,0.417-5.614,3.42-5.197,6.707C45.776,251.562,48.358,253.776,51.336,253.776z"></path>
</svg>
