<?xml version="1.0" encoding="utf-8"?>
<!-- Generator: Adobe Illustrator 27.0.0, SVG Export Plug-In . SVG Version: 6.00 Build 0)  -->
<svg version="1.1" id="Layer_1" xmlns="http://www.w3.org/2000/svg" xmlns:xlink="http://www.w3.org/1999/xlink" x="0px" y="0px"
	 viewBox="0 0 431.4 490.1" style="enable-background:new 0 0 431.4 490.1;" xml:space="preserve">
<style type="text/css">
	.st0{fill:#21191F;}
	.st1{fill:#CE7538;}
</style>
<path class="st0" d="M108.3,490.1c-2.3,0-3.6-1.6-4.9-3.1c-0.2-0.2-0.4-0.4-0.5-0.6c-0.7,2.3-1.7,3.7-3.8,3.7
	c-0.7,0-1.6-0.2-2.8-0.5c-4.3-1.3-7.4-4.3-9.2-9c-0.8-1.9-1.6-2.5-3.7-2.5c0,0-1.2,0-1.7,0c-15.3,0-26.7-1.9-36.9-6.2
	c-11-4.6-18.6-9.7-24.8-16.5c-9.6-10.6-15.7-22.3-18.4-35c-4.1-19.5-0.9-38.9,9.5-57.7c6.2-11.2,14.1-20.8,23.6-28.4
	c2.3-1.9,2.7-3.9,2.6-6.6c-1.7-36.7,10.3-68.2,35.6-93.7c1.4-1.4,2.6-2,3.9-2c0.9,0,1.9,0.3,3.1,0.8c22,10.2,40.6,17.2,58.6,22
	c1.3,0.4,2.7,0.7,4,1.1c3.8,1.1,7.7,2.2,11.7,2.7l0.1,0.8l-1,0.3c-6.2,1.6-12.5,3.3-17.9,7.1c-10.7,6.7-16.8,16.3-18.4,28.5
	c-0.3,2.7-0.1,5.9,0.7,9.7c0.8,3.7,1.2,7.5,1.7,11.1c0.4,3.4,0.8,6.9,1.5,10.2c3.6,18,6.3,36.3,8.4,51.9c0.8,5.6,1.8,11.2,2.7,16.6
	c1.3,7.5,2.7,15.2,3.5,22.9c0.9,8.8,2.5,17.7,4,26.3c1.1,6.3,2.3,12.8,3.1,19.3c1.5,10.8-1.6,18.7-9.5,24.4
	c-1.9,1.3-3.3,1.9-4.7,1.9c0,0,0,0,0,0c-1.8,0-3.3-1.2-4.7-3.8c-0.9,2.1-2.3,4.1-4.9,4.1c-3.2,0-4.6-2.4-5.7-4.9
	c-0.5,2.1-1.1,4.5-4.1,5C108.9,490.1,108.6,490.1,108.3,490.1z M242.5,490c-1.7,0-2.9-2.3-3.8-4.8c-1.6,3.1-3.3,4.5-5.2,4.5
	c-1.7,0-3.5-1.2-5.5-3.8c-0.4,1.7-1.1,3.1-3.1,3.1l-0.3,0c-1.6,0-3.2-0.3-4.7-1.1c-7.5-3.5-12.4-12.9-11.1-21.4
	c1.9-12.4,3.7-24.7,5.6-37.1c3.1-20.4,6.3-41.4,9.4-62.1c3.1-20.4,6.1-41.4,9-62.3c0.3-2.1,0.2-4.3,0.2-6.4c0-1,0-2,0-3
	c0.4-3,0.3-5.3-0.3-7.4c-4.4-15.8-15.4-25.1-33.5-28.3l-1-0.2l0.9-0.5c2.3-1.4,4.9-1.9,7.4-2.4c1.1-0.2,2.2-0.4,3.3-0.7
	c20.1-5.4,39.1-12.2,56.5-20.2c1.3-0.6,2.3-0.9,3.2-0.9c1.5,0,2.7,0.7,4.1,2.4c13,15.3,21.6,30.9,26.3,47.6c2,7,3.1,14.4,4,21.3
	c0.6,4.3,0.6,8.6,0.6,12.7c0,1,0,2,0,3.1c0.1,6.2-0.6,11.9-2.1,16.9c-0.5,1.8-0.2,3,1.2,4.3c1.2,1.1,2.2,2.3,3.1,3.5
	c1.2,1.5,2.4,3,4,4.2l0.1,0l0,0.1c0.2,0.3,0.3,0.7,0.5,1c0.3,0.7,0.7,1.4,1.1,2c10.2,15,15.7,30.3,16.5,46.6
	c0.1,1.7,0.5,1.7,0.8,1.7c0.4,0,1-0.3,1.6-0.5c15-7.2,27.7-16.6,37.9-28.1c1.8-2.1,3.6-2.9,5.9-2.9c0.8,0,1.6,0.1,2.7,0.3
	c3,0.6,6,1,9,1.5c3.9,0.6,8,1.2,11.9,2.1c2.3,0.5,4.7,0.6,6.7,0.6c0.7,0,1.4,0,2.2,0c0.7,0,1.4,0,2.2,0c3.2,0,6.6,0.2,9.8,1.5
	c0.1,0.1,0.3,0.1,0.5,0.1l0,0c0.5,0,1.1-0.2,1.7-0.4c0.4-0.1,0.8-0.3,1.3-0.4l0.7-0.1l-0.2,0.6c-5.6,15.4-13.7,29.7-24.1,42.7
	c-11,13.7-24.1,25.5-39.2,34.8c-11.6,7.2-24.3,12.1-34,15.5c-5.4,1.9-11.4,2.7-17.1,3.4c-2.3,0.3-4.7,0.6-7,1
	c-4.1,0.7-8.4,1.1-12.5,1.5c-6.9,0.7-14.1,1.4-20.9,3.3l-0.2,0.1c-1.8,0.5-3,0.8-3.8,2.7c-1.1,2.7-3.2,5-6,6.5
	c-0.2,0.1-0.3,0.2-0.5,0.3c-1,0.6-2.2,1.2-3.2,1.2c-0.1,0-0.2,0-0.3,0c-0.5-0.1-0.9-0.1-1.3-0.2c-1.7-0.3-3.4-0.5-5.1-0.5
	c-1.8,0-3.3,0.3-4.8,0.8C243,490,242.8,490,242.5,490z M177.3,244.4c-0.5,0-0.9-0.3-1.5-0.9c-3.3-3.5-6.7-7-10-10.4
	c-2-2.1-4.1-4.3-6.1-6.4c-3.7-3.9-4.7-8-2.8-12.3c2-4.4,5.8-6.8,11.3-7.3c1.1-0.1,2.3-0.1,3.7-0.1c1,0,2,0,3,0c1,0,2,0,2.9,0
	c1,0,1.9,0,2.8,0c0.9,0,1.9,0,2.8,0c1.4,0,2.5,0,3.5,0.1c5.3,0.4,9.2,3,11.1,7.5c1.8,4.2,0.8,8.3-2.9,12.2c-3.2,3.3-6.4,6.6-9.6,9.7
	c-2.3,2.3-4.5,4.5-6.8,6.8C178.3,244,177.8,244.4,177.3,244.4z M254,233.7c2.5-9.7,0.5-14.7-7.9-19.9c-4.2-2.6-8.8-4.7-13.3-6.7
	c-3.2-1.4-6.4-2.9-9.5-4.5c-6.4-3.4-10.9-7.2-13.9-11.9c-5.5-8.5-6.6-17.9-3.3-28.1c2.4-7.1,8.5-11.8,15.7-11.8c3,0,5.9,0.8,8.6,2.3
	c6,3.2,10.8,8.3,14.6,12.3c9,9.5,16.3,18.8,22.3,28.6c1.9,3.1,3.5,6.1,4.8,9.2c5,11.8,1.5,21.6-9.9,27.7c-1,0.5-2,1-3.1,1.5
	c-1,0.4-1.9,0.8-3,1.2c-0.5,0.2-2.3,0.9-2.3,0.9L254,233.7z M222.2,165c-4.4,0-7.9,3.3-8,7.6c0,2,0.7,3.8,2.1,5.3
	c1.5,1.5,3.6,2.4,5.8,2.5h0c2.1,0,4.1-0.9,5.6-2.4c1.5-1.5,2.2-3.4,2.2-5.5C229.9,168.3,226.6,165.1,222.2,165L222.2,165z
	 M98.7,232.9c-5.6-0.4-10.8-3.4-14.4-8.5c-3.8-5.3-5.1-11.9-3.6-17.7c1-3.8,2.7-7.6,5.4-11.8c9.2-14.8,19.5-27,31.3-37.4
	c3.1-2.7,6.6-5.4,11-6.3c1.3-0.3,2.5-0.4,3.8-0.4c9.5,0,16.8,7.5,17.6,18.4c1.1,14.1-4.4,24.8-16.6,31.8c-4.2,2.4-8.6,4.3-13,6.2
	c-3.8,1.6-7.7,3.3-11.4,5.3c-5.5,3-8.7,6.5-10.3,11.3c-0.7,2-0.3,3.7,0.1,5.5c0.2,1,0.5,2.1,0.5,3.2l0,0.4L98.7,232.9z M133.1,165
	c-4.3,0-7.7,3.2-7.9,7.4c-0.1,2.1,0.7,4.1,2.1,5.6c1.4,1.5,3.2,2.3,5.2,2.3l0.2,0c4.7,0,7.9-3.2,8-7.7c0-4.3-3.1-7.5-7.4-7.7
	C133.2,165,133.2,165,133.1,165z M312.7,125.9c-4.8-6.8-9.1-14.3-13.1-22.9l-0.1-0.2l0.1-0.2c7.4-12.1,12.6-25.5,15.3-39.8
	c2-10.9-1.2-18.3-9.5-21.4c-3.1-1.2-6.3-1.8-9.6-1.8c-1.2,0-2.5,0.1-3.7,0.2c-8,1.1-15.4,4.2-21.7,7.1c-3.1,1.4-6,3.2-8.9,4.9
	c-1.3,0.8-2.6,1.6-4,2.3l-0.1,0.1l-0.1,0c-3.4-0.8-6.1-2.9-8.7-4.8c-1.5-1.1-3-2.2-4.6-3.1c-7.2-4-14.9-7.2-22.7-9.4l-0.9-0.2
	l0.8-0.5c15.3-8.7,31.7-16.2,48.7-22.6c15.3-5.7,29.1-9.6,42.1-11.9c5.3-0.9,10.4-1.8,15.7-1.8c2.1,0,4.1,0.1,6.1,0.4
	c8.7,1.2,13.5,5.9,14.5,14.3c1.3,11-1.2,21.4-4.4,32.8c-7.3,26.1-16.8,50.9-28.2,73.5c-0.5,1.1-1.1,2.2-1.6,3.3
	c-0.2,0.5-0.5,1-0.7,1.5l-0.3,0.6L312.7,125.9z M41.2,125.7c-12.6-24.2-22.6-49.2-29.8-74.4C8.6,41.5,6,31,6.1,20.1
	C6.1,6.8,12.4,0,24.9,0c1,0,2,0,3,0.1c14.6,1.1,29.9,4.5,47.9,10.7c20.1,6.9,39.2,15.3,56.7,25l0.8,0.5l-0.9,0.2
	c-10.6,2.9-20.8,8-31.4,15.6c-0.3,0.2-0.5,0.4-0.8,0.6c-0.9,0.7-1.8,1.5-3.1,1.5c-0.1,0-0.3,0-0.4,0l-0.1,0l-0.1,0
	c-0.5-0.3-1-0.6-1.5-0.8c-1-0.6-2.1-1.2-3.2-1.8c-9.2-4.9-18.8-10.1-29.7-11.8c-1.4-0.2-2.8-0.3-4.2-0.3c-6,0-11.2,2.1-14.7,5.9
	c-3.1,3.4-4.6,7.8-4.2,12.8c0.3,4.2,0.7,8,1.8,11.8c3.5,12.8,7.9,23.7,13.4,33.3l0.1,0.2l-13,22.8L41.2,125.7z"/>
<path class="st1" d="M329.8,403.3c-1.4,0-1.5-1.7-1.5-2.4c-0.9-16.2-6.2-31.3-16.4-46.3c-0.4-0.7-0.8-1.4-1.1-2.1
	c-0.2-0.3-0.3-0.6-0.5-1l-0.1-0.2l0.1-0.2c0.6-1.3,1.6-1.9,2.7-2.5c0.4-0.2,0.8-0.5,1.2-0.7c24.2-17.7,35-39.4,33-66.5
	c-0.9-12.6-6-22.9-15-30.7c-3.6-3.1-8-5.1-14.8-6.7l-1.4-0.3l1.4-0.4c8.5-2.6,16.9-3.9,25.1-3.9c14.2,0,28.3,4,41.9,11.9
	c24.8,14.3,40.1,36.9,45.4,67c3.3,18.9,1.2,38-6.5,58.2l-0.1,0.2l-0.2,0c-0.4,0.1-0.8,0.2-1.2,0.3c-0.7,0.2-1.3,0.4-1.9,0.4
	c-0.3,0-0.5,0-0.8-0.1c-3.1-1.3-6.4-1.5-9.5-1.5c-0.7,0-1.4,0-2.2,0c-0.7,0-1.4,0-2.2,0c-2,0-4.4-0.1-6.8-0.6
	c-3.9-0.9-7.9-1.5-11.8-2c-3-0.4-6-0.9-9-1.5c-1-0.2-1.9-0.3-2.6-0.3c-2.1,0-3.6,0.8-5.3,2.7c-10.2,11.6-23,21.1-38.1,28.3
	C330.9,403.1,330.3,403.3,329.8,403.3z M74.1,231.5c-0.9,0-1.6-0.5-2.1-1c-0.1-0.1-0.2-0.2-0.3-0.2C58,223.9,44.6,217.2,32,210.4
	c-1.1-0.6-2.1-1.1-3.2-1.7c-4.1-2.2-8.4-4.6-12.8-6.3c-0.8-0.3-1.6-0.7-2.3-1.1c-1.1-0.6-2.3-1.3-3.6-1.5c-0.6-0.1-1-0.4-1.3-0.8
	c-0.3-0.5-0.2-1.1,0.1-2l0.1-0.3c9.1-23,18.5-46.8,31.3-68.6c0.1-0.2,0.2-0.3,0.3-0.5c0.4-0.6,0.8-1.3,0.6-2l0-0.2l12.8-22.3l0.2,0
	c0.7-0.1,1-0.7,1.3-1.3c0.1-0.2,0.2-0.5,0.4-0.7C68.1,82.3,80.9,67.6,95.1,56c0.1-0.1,0.2-0.2,0.4-0.3c0.7-0.6,1.2-1,1.1-1.8
	l-0.1-0.5l0.5,0.1c0.1,0,0.2,0,0.3,0c1,0,1.8-0.6,2.6-1.3c0.3-0.2,0.5-0.4,0.8-0.7c10.7-7.6,21-12.8,31.6-15.7l0.2,0l0.1,0.1
	c1.3,0.7,2.6,1.4,3.9,2.1c3.1,1.7,6.3,3.4,9.4,5.3c0.8,0.5,1.4,0.7,1.9,0.7c0.5,0,1-0.3,1.7-2c3.3-8.7,7.7-17,13-24.7
	c0.2-0.3,0.3-0.5,0.6-0.9l0.9-1.4l13.2,27.7l13.6-27.6l0.4,0.5c4.6,5.5,7.6,11.3,10.2,16.6c1.2,2.4,2.1,4.4,2.8,6.3l0,0.1
	c1.5,3.5,2,4.7,3.1,4.7c0.9,0,2.3-0.8,4.7-2.2l0.1-0.1c2.1-1.2,4.2-2.3,6.3-3.4c0.9-0.5,1.9-1,2.8-1.5l0.1-0.1l0.1,0
	c7.9,2.2,15.6,5.4,22.9,9.4c1.7,0.9,3.2,2.1,4.7,3.2c2.5,1.9,5.2,3.9,8.4,4.7l0.3,0.1l0,0.3c0,0.7,0.1,1.1,0.5,1.4
	c6.8,5.3,13.4,11.9,20.2,20.1c1.5,1.8,3.1,3.5,4.6,5.2c2.7,2.9,5.5,6,7.8,9.4c2,3,4.3,6,6.4,8.8c1,1.3,2,2.6,2.9,3.9l0,0l0,0
	c4,8.6,8.3,16,13.1,22.8l1.2,2.4c5.9,11.6,12.1,23.6,17.1,35.9c3,7.3,5.9,14.8,8.7,22c1.3,3.3,2.6,6.6,3.9,9.9l0.1,0.2
	c0.6,1.5,1.2,3-1.3,4.2c-12.3,6.1-24.7,12.3-36.7,18.3c-6.5,3.3-13,6.5-19.6,9.8c-0.2,0.1-0.4,0.2-0.5,0.3c-0.6,0.4-1.3,0.8-2.2,0.8
	l0,0c-0.3,0-0.7-0.1-1-0.2l-0.5-0.2l0.3-0.4c1-1.6,2.5-2.5,3.9-3.4c0.7-0.4,1.3-0.9,1.9-1.3c5-4.1,10.4-9.4,11.5-17.5
	c0.8-5.7-0.2-11.5-3.2-17.7c-7.6-16-20.2-27.5-32.4-37.9c-7.3-6.2-15.3-11.8-24.6-17.2c-4.5-2.6-8.2-3.8-11.6-3.8
	c-5,0-9.4,2.7-14.3,8.7c-5.7,7.1-8.8,15.8-9.6,27.4c-0.1,1.5-0.1,2.9-0.1,4.7c0,1,0,2,0,3.2v1.1l-0.7-0.9
	c-8.3-10.5-16.4-15.3-26.1-15.5c-0.2,0-0.4,0-0.5,0c-9.8,0-17.9,4.6-25.6,14.5l-0.7,0.9l0-1.1c-0.1-5.7-0.6-10.6-1.5-15.5
	c-1.6-8.6-5.7-16.5-12.3-23.4c-2.5-2.7-6.7-4.2-11.4-4.2c-4,0-7.9,1-11.1,2.9c-12.2,7.3-23.6,16-35.1,26.6
	c-7.8,7.2-16.5,16.2-21.9,28c-7.7,16.8-3.7,29.8,12.1,39.8c0.7,0.5,1.4,1,2.1,1.5c0.3,0.2,0.6,0.4,0.9,0.7l3.8,1.6l-0.8,0.4
	C75.1,231.4,74.6,231.5,74.1,231.5z"/>
</svg>
