<?xml version="1.0" encoding="utf-8"?>
<!-- Generator: Adobe Illustrator 22.1.0, SVG Export Plug-In . SVG Version: 6.00 Build 0)  -->
<svg version="1.1" xmlns="http://www.w3.org/2000/svg" xmlns:xlink="http://www.w3.org/1999/xlink" x="0px" y="0px"
	 viewBox="0 0 500 500" style="enable-background:new 0 0 500 500;" xml:space="preserve">
<style type="text/css">
	.st0{display:none;}
	.st1{fill:#9B583A;}
	.st2{fill:#FF955A;}
	.st3{fill:#4C403B;}
	.st4{fill:none;stroke:#332F2E;stroke-width:3.8493;stroke-linecap:round;stroke-linejoin:round;stroke-miterlimit:10;}
	.st5{fill:#3F3733;}
	.st6{fill:#FFFFFF;}
	.st7{fill:#FFFFFF;stroke:#332F2E;stroke-width:3.8493;stroke-linecap:round;stroke-linejoin:round;stroke-miterlimit:10;}
	.st8{fill:#332F2E;}
	.st9{fill:#9B583A;stroke:#332F2E;stroke-width:3.8493;stroke-linecap:round;stroke-linejoin:round;stroke-miterlimit:10;}
	.st10{fill:#3F3733;stroke:#332F2E;stroke-width:3.8493;stroke-linecap:round;stroke-linejoin:round;stroke-miterlimit:10;}
	.st11{fill:#BA8856;stroke:#332F2E;stroke-width:3.8493;stroke-linecap:round;stroke-linejoin:round;stroke-miterlimit:10;}
</style>
<g id="Layer_1" class="st0">
</g>
<g id="Layer_2">
	<g>
		<path class="st7" d="M339.6,173.2c0,0-0.5-11.5,2.8-12.9s19.5,10.9,19.7,12.1s-4.1,11-6.1,10.8s-6.6-0.2-6.6-1.5
			C349.4,180.4,339.6,173.2,339.6,173.2z"/>
		<path class="st10" d="M355.1,323.1c0,0,5.8,12.5,21,7s4.9-28.1,3.7-40.3c-1.2-12.2-51.4-6.7-51.4-6.5s4.8,13.7,6.8,19
			C337.2,307.8,355.1,323.1,355.1,323.1z"/>
		<path class="st11" d="M430.9,238h42.4c0,0-2.7,8-1.1,13.9s1.1,11.6,1.1,11.6l-11.3,6c0,0,8.2,15.7,8.8,16.5
			c0.5,0.8-19.4,4.9-36.3,8.2c-16.9,3.3-401.3,0-401.3,0l-6.6-17.2V238H430.9z"/>
		<path class="st1" d="M168.8,238c0,0-5.4,0.7-15.8,1.4c-2.4,0.2-5.1,0.3-8.1,0.5c-2.9,0.1-6.2,0.3-9.6,0.4
			c-7.9,0.3-17.1,0.5-27.6,0.5c-0.4,0-0.8,0-1.2,0c-6.7,0-13.2,0.2-19.3,0.5c-8.8,0.4-16.9,0.9-24.1,1.3
			c-17.6,0.9-29.8,0.9-32.7-4.5c0,0,4-22.8,32.6-32.6h0c3.1-1.1,6.5-2,10.3-2.7c5.1-1,10.5-1.5,15.9-1.7c7-0.3,14.2,0,21.4,0.5
			c9,0.6,17.9,1.7,26.5,2.7c3,0.4,5.9,0.7,8.8,1c2.9,0.3,5.7,0.6,8.4,0.9c11.7,1.1,21.8,1.3,28.8-1.1
			C204.5,197.8,168.8,238,168.8,238z"/>
		<path class="st2" d="M145,239.8c-2.9,0.1-6.2,0.3-9.6,0.4c-7.9,0.3-17.1,0.5-27.6,0.5c-0.4,0-0.8,0-1.2,0
			c-6.7,0-13.2,0.2-19.3,0.5c-8.8,0.4-16.9,0.9-24.1,1.3c-17.6,0.9-29.8,0.9-32.7-4.5c0,0,4-22.8,32.6-32.6h0
			c3.1-1.1,6.5-2,10.3-2.7c5.1-1,10.5-1.5,15.9-1.7c7-0.3,14.2,0,21.4,0.5c9,0.6,17.9,1.7,26.5,2.7c3,0.4,5.9,0.7,8.8,1
			c-0.8,5.5-1.4,11.9-1.6,18.9C144.3,229.7,144.5,234.9,145,239.8z"/>
		<line class="st4" x1="26.6" y1="277.1" x2="82.4" y2="277.1"/>
		<path class="st3" d="M63.1,242.5c-17.6,0.9-29.8,0.9-32.7-4.5c0,0,4-22.8,32.6-32.6C60.8,215.2,59,229.4,63.1,242.5z"/>
		<path class="st3" d="M106.6,240.7c-6.7,0-13.2,0.2-19.3,0.5c-3.6-12.4-0.3-30.1,2-40.2c7-0.3,14.2,0,21.4,0.5
			C104.6,211.5,104.9,230.2,106.6,240.7z"/>
		<path class="st3" d="M153,239.4c-4.8,0.3-10.7,0.6-17.7,0.9c-2.3-10.9,0.2-27.2,1.9-36c6,0.7,11.8,1.4,17.2,1.9
			C152.4,216.2,152.7,231,153,239.4z"/>
		<path class="st4" d="M30.5,238c0,0,4.9-28.1,42.9-35.3s88.5,9.5,109.8,2.3c21.3-7.2-14.4,33-14.4,33s-21.2,2.7-61.1,2.7
			S35.4,247.2,30.5,238z"/>
		<path class="st10" d="M190,294.1c0,0,6.6,31.7,25.7,27.9c23.8-4.8,18-34.6,7.9-45.1C213.5,266.5,190,294.1,190,294.1z"/>
		<path class="st2" d="M434.5,227.5c0,0.2,0,0.3-0.1,0.5c-0.8,7.1-3,15.1-23,22.1c-2.1,0.7-4.3,1.4-6.8,2.1c-1.1,0.3-2.3,0.7-3.6,1
			c-4.2,1.1-8.3,1.9-12.3,2.4c-19.4,2.5-34.9-1.3-40.3-3c0,0-0.1,0-0.1,0c-0.8-0.2-1.4-0.4-1.7-0.5c0,0,0,0,0,0
			c-0.2-0.1-0.3-0.1-0.3-0.1s0,0,0,0c-0.2,0.8-7.9,25.5-0.3,43.4c7.8,18.2,22.1,42.2-10.1,44.5c-32.2,2.3-41.8-60.8-41.8-60.8
			c-24.4,6.5-58.6-1.9-58.6-1.9s-13,44.5-38.5,36.6c-25.5-7.9-33.2-43-28.6-73.9c1-6.8,2.9-13.5,5.8-19.9c0,0,0,0,0,0
			c10.2-22.8,32.5-41.7,70.8-47c49.1-6.8,76,9.9,76,9.9s3.7,13.9,9.7,16.6c6,2.7,19.9-14.2,20-25.8c0,0,18.2-3.8,36.6,2.3
			c18.4,6.1,27.4,31.5,27.4,31.5c4.1,2.5,8.9,5.2,12.7,8.3C431.8,219.2,434.9,223.1,434.5,227.5z"/>
		<path class="st5" d="M336,339.8c-32.2,2.3-41.8-60.8-41.8-60.8c-24.4,6.5-58.6-1.9-58.6-1.9s-13,44.5-38.5,36.6
			c-25.5-7.9-33.2-43-28.6-73.9c1-6.8,2.9-13.5,5.8-19.9c0,0,0,0,0,0s-0.6,18.7,25.8,27.1c26.4,8.4,38.2-0.9,38.2-0.9
			s8.5,12.6,28.3,12c19.8-0.6,25.6-4.4,25.6-4.4s33.9-7.5,54.1-1.7c-0.2,0.8-7.9,25.5-0.3,43.4C353.8,313.5,368.2,337.5,336,339.8z"
			/>
		<path class="st10" d="M348.4,252.5c-0.8-0.2-1.4-0.4-1.7-0.5C347.3,252.1,347.9,252.3,348.4,252.5z"/>
		<path class="st6" d="M404.7,252.2c-1.1,0.3-2.3,0.7-3.6,1c-4.2,1.1-8.3,1.9-12.3,2.4c-8.3-7.6-12.2-20.9-8.7-30.5
			c5-14,12.6-12.4,14.3-8.3c1.6,4.1-2.2,9.1,1.5,21.5C397.8,244.9,401.6,249.4,404.7,252.2z"/>
		<path class="st6" d="M434.5,227.5c0,0.2,0,0.3-0.1,0.5c-0.8,7.1-3,15.1-23,22.1c-2.9-2.7-5.7-6.9-6.8-13.5
			c-2.8-16.7,10.1-29.2,10.1-29.2c4.1,2.5,8.9,5.2,12.7,8.3C431.8,219.2,434.9,223.1,434.5,227.5z"/>
		<path class="st7" d="M350.8,173.5c-0.1,11.6-14.1,28.5-20,25.8c-6-2.7-9.7-16.6-9.7-16.6s-5.4-18.2,2.4-19
			C331.4,163,350.8,173.5,350.8,173.5z"/>
		<path class="st4" d="M346.4,251.9c0,0-12.9-7.5-14.8-21"/>
		<path class="st8" d="M337.6,197.2c0,0-11-18.7-7-22c4.4-3.8,18.8,5.2,18.8,5.2S343.4,194.4,337.6,197.2z"/>
		<path class="st8" d="M434.5,227.5c0,0.2,0,0.3-0.1,0.5c-1.7,0.6-5.4,1.2-7.7-2.7c-3.2-5.2,0.8-9.6,0.8-9.6
			C431.8,219.2,434.9,223.1,434.5,227.5z"/>
		<path class="st4" d="M430.9,238c0,0-8.2,7.9-13,3c-4.7-4.9-0.7-7.1-0.7-7.1"/>
		<path class="st4" d="M393.6,206.6c0,0,0.3-4.5,3.8-5c3.5-0.5,4.8,3.7,4.8,3.7"/>
		<path class="st4" d="M434.5,227.5c0,0.2,0,0.3-0.1,0.5c-0.8,7.1-3,15.1-23,22.1c-2.1,0.7-4.3,1.4-6.8,2.1c-1.1,0.3-2.3,0.7-3.6,1
			c-4.2,1.1-8.3,1.9-12.3,2.4c-24.3,3.1-42.4-3.7-42.4-3.7s-8.1,25.3-0.3,43.4c7.8,18.2,22.1,42.2-10.1,44.5
			c-32.2,2.3-41.8-60.8-41.8-60.8c-24.4,6.5-58.6-1.9-58.6-1.9s-13,44.5-38.5,36.6c-25.5-7.9-33.2-43-28.6-73.9s27.5-60.1,76.6-66.9
			s76,9.9,76,9.9s3.7,13.9,9.7,16.6c6,2.7,19.9-14.2,20-25.8c0,0,18.2-3.8,36.6,2.3c18.4,6.1,27.4,31.5,27.4,31.5
			c4.1,2.5,8.9,5.2,12.7,8.3C431.8,219.2,434.9,223.1,434.5,227.5z"/>
		<path class="st4" d="M294.2,279c0,0-3.4-20.8-1.1-39.4"/>
		<path class="st4" d="M235.6,277.1c0,0,7.9-23.7,0.2-38.6"/>
		<line class="st4" x1="462" y1="269.5" x2="420.9" y2="266.9"/>
	</g>
</g>
</svg>
