<svg id="Layer_1" data-name="Layer 1" xmlns="http://www.w3.org/2000/svg" xmlns:xlink="http://www.w3.org/1999/xlink" viewBox="0 0 1688.94 1294.81"><defs><style>.cls-1{fill:#edd0b9;}.cls-2{fill:#411617;}.cls-3{fill:#de5a3d;}.cls-4{fill:#ea8462;}.cls-5{fill:#612525;}.cls-6{fill:#bd462f;}.cls-7{fill:url(#linear-gradient);}.cls-8{fill:#792c2b;}.cls-9{fill:#f9f4ec;}.cls-10{fill:#271819;}</style><linearGradient id="linear-gradient" x1="1795.7" y1="1414.76" x2="1752.35" y2="1410.23" gradientTransform="matrix(1, 0, 0, -1, 0, 2002)" gradientUnits="userSpaceOnUse"><stop offset="0" stop-color="#edcabb"/><stop offset="1" stop-color="#f2e3d2"/></linearGradient></defs><title>tiny red 1</title><path class="cls-1" d="M1239.62,1356.58c4.75,38,13.92,72.8,30,107.6,5.8,12.56,13.37,31.56,27.53,36.42,21.92,7.52,97.27,5.38,117.93-5.54,6.7-3.55,12.91-8.94,15-16.5,2.14-7.84-.28-16.19-4.23-23-9.73-16.9-28.62-23.57-46.35-28.22l12.87-26.73c.6.22,1.19.44,1.8.65,13.88,4.7,41.84,5,57.83,6.91,54,6.36,216.91,23.15,243.87,73.4a25.29,25.29,0,0,1,2,20.33c-5.12,15.7-21.46,25.46-35.6,32.1-54.62,25.67-116.38,35.08-175.55,44.24-116.11,18-232.47,25.26-349.79,28.62q-98.22,3.39-196.46,1.13t-196.2-10.18c-85.15-7.54-204.74-23.54-283.72-52.85-19.32-7.17-47.91-19.29-57.1-39.21a26,26,0,0,1-1-20.26c7.63-20.64,39.67-34.86,58.36-42.78,47.61-20.15,101.79-32.64,153.27-36.28,18.16,42.16,41.9,88.3,83,112.06,31.68,18.3,97.49,19.78,132.4,10.25,12.59-3.43,19.89-9,26.28-20.14,31.77.46,70.21,2.36,98.33-14.86,6.53-4,12.85-9.87,14.31-17.72,1.64-8.77-2.16-17.9-7-25-10-14.68-23.85-21.37-40.66-24.84,3.57-11.63,7.47-23,10.45-34.82,34.2.93,67.79,1.07,101.55-5.38,11.55,39.19,32,86.49,58.84,117.21,19.14,21.86,46.65,27.52,74.53,29.38,25.83,1.73,65.66,1.84,86.15-17.14a32.05,32.05,0,0,0,10.32-23.21c.28-10.17-3.4-22.13-10.77-29.38-7.67-7.55-16.5-8.42-26.63-8.54C1225.76,1421.45,1232.46,1388.45,1239.62,1356.58Z" transform="translate(-155.53 -314.04)"/><path class="cls-2" d="M957.23,705.58c-27.59-31.5-36.61-73.45-41.21-114.08q-1.34-12.9-2-25.86t-.72-25.92q0-13,.57-25.93t1.87-25.87q1.26-12.9,3.15-25.74t4.44-25.55q2.54-12.72,5.7-25.3t7-25c5.55-18.18,11.84-37.94,24-52.92,9.34-11.51,21-17.62,35.73-19,15.59-1.5,32.68,2.27,47.79,5.67,76.38,17.18,148.68,59.64,208.61,109.09,38.27-31,81.61-43,126.45-61,9.86-3.94,19.11-10.75,29-14l1.91,1.26a9.55,9.55,0,0,1,.18,1.07c.61,12.33-19.52,40.32-28.31,49.45a169.74,169.74,0,0,1,31.19-8.57c8-1.48,65.1-7.57,68.94-4.93a10.63,10.63,0,0,1,0,1.13c-1.45,9.66-25.81,29.53-33.57,35.55,19,1.48,36.92,5.91,55.3,10.76,13.31-17.31,29.82-31.22,48.07-43.1,44.39-28.9,147.6-73.55,200-61.36,13.71,3.19,23.13,10.77,30.47,22.68,36.59,59.43,34.9,206.67,21.17,274.45a471.29,471.29,0,0,1-14,51.69c-3.44,10.55-7.76,21-10.35,31.75l-.29,1.26c15.45,28.18,25.42,59.11,41.8,87.07,6.67,11.38,16.3,19.09,23.31,29.74a9.61,9.61,0,0,1-.77,3.39c-2.93,5.85-12.15,9.33-17.88,11.85,6,6.73,13.21,12.67,19.87,18.76-3.06,6.08-9.62,16.65-15.92,19.93-.53.27-1.07.51-1.61.76.42.05,2.78-1.49,3.2-1.73-7,20.49-17.26,38.45-30.38,55.61-74.46,97.47-207.23,157.67-327,173.37-6.78,100.16-40.69,193.27-80.47,284.55l-12.87,26.73c17.73,4.65,36.62,11.32,46.35,28.22,4,6.85,6.37,15.2,4.23,23-2.07,7.56-8.28,13-15,16.5-20.66,10.92-96,13.06-117.93,5.54-14.16-4.86-21.73-23.86-27.53-36.42-16.07-34.8-25.24-69.61-30-107.6-7.16,31.87-13.86,64.87-14.43,97.65,10.13.12,19,1,26.63,8.54,7.37,7.25,11,19.21,10.77,29.38a32.05,32.05,0,0,1-10.32,23.21c-20.49,19-60.32,18.87-86.15,17.14-27.88-1.86-55.39-7.52-74.53-29.38-26.88-30.72-47.29-78-58.84-117.21-33.76,6.45-67.35,6.31-101.55,5.38-3,11.83-6.88,23.19-10.45,34.82,16.81,3.47,30.66,10.16,40.66,24.84,4.86,7.13,8.66,16.26,7,25-1.46,7.85-7.78,13.72-14.31,17.72-28.12,17.22-66.56,15.32-98.33,14.86-6.39,11.14-13.69,16.71-26.28,20.14-34.91,9.53-100.72,8-132.4-10.25-41.14-23.76-64.88-69.9-83-112.06-29.81-72.26-38.68-139.74-39.73-217.36-35.33-1.93-68.29-7.78-100.79-22.55-84.79-38.55-146-129.52-175.83-215.25-6.49-18.66-22.74-81.78-32.57-94-9.6-11.89-34.67-15.87-48.69-21.51-12.9-5.19-25.78-11.69-36.31-20.91-.9-.8-1.78-1.61-2.63-2.44s-1.7-1.69-2.52-2.57-1.61-1.77-2.38-2.69-1.52-1.85-2.25-2.8-1.42-1.92-2.1-2.91-1.33-2-2-3-1.23-2.05-1.81-3.1-1.12-2.11-1.65-3.19-1-2.16-1.49-3.27-.91-2.21-1.33-3.33-.8-2.26-1.16-3.4-.69-2.29-1-3.45-.58-2.33-.82-3.5-.46-2.35-.64-3.53-.35-2.37-.48-3.56-.22-2.38-.29-3.58c-2.06-36.31,22.27-74.16,45.67-99.86,43.65-47.94,108.41-74.34,172.5-77.15,66.38-2.91,141.84,23.84,191.05,69q3.55,3.24,7,6.55t6.87,6.72q3.4,3.41,6.71,6.89t6.53,7q3.22,3.57,6.36,7.21t6.18,7.37q3,3.7,6,7.51t5.81,7.66q2.86,3.85,5.62,7.79t5.43,7.94q2.67,4,5.23,8.06t5,8.19q2.46,4.13,4.83,8.31t4.62,8.43q2.26,4.24,4.42,8.54t4.2,8.65q2,4.33,4,8.74T663.5,797q1.83,4.46,3.56,8.93t3.33,9c1.08,3,2.11,6.05,3.12,9.1s2,6.09,2.88,9.16,1.82,6.15,2.66,9.24,1.67,6.19,2.44,9.3,1.51,6.23,2.21,9.35,1.35,6.27,2,9.41,1.2,6.3,1.74,9.46,1.05,6.32,1.51,9.49.89,6.35,1.28,9.53.73,6.36,1,9.55.58,6.39.81,9.58.42,6.4.57,9.6C736.86,891.18,795,866,852.19,859.11c25.37-3.06,43.59,1.5,66.91-12.64a121,121,0,0,1-17.38-2.25c-5.9-1.34-12.16-2.87-15.6-8.23,2-6.07,12.8-13.63,17.28-18.75,4.81-5.49,8.75-12.88,12.43-19.18C932.65,769.24,943.69,736.09,957.23,705.58Z" transform="translate(-155.53 -314.04)"/><path class="cls-3" d="M651.26,823.65c7.68,22.71,12.72,45.68,16.37,69.34-10.49-10.11-22.75-48.39-28.87-63.28A54.92,54.92,0,0,0,651.26,823.65Z" transform="translate(-155.53 -314.04)"/><path class="cls-4" d="M308.94,622l-7.59,18.19-.85,1.33c-14.69,3.07-29.19,8.46-42.87,14.62-5.89,2.65-11.92,6.15-18,8.24a9.19,9.19,0,0,1-5.18.44C255,645.24,282.67,631.85,308.94,622Z" transform="translate(-155.53 -314.04)"/><path class="cls-5" d="M1379.81,1438.54c8.87-.5,14.28.68,21.85,5.56,8.3,5.34,16.18,13.75,18,23.76.94,5.11.27,10.42-2.8,14.69-1.66,2.31-.67,1.66-3.4,2.07-4.66-10.66-12.45-22.64-21.6-30-4.21-3.37-19-7.89-20.77-11.93C1373.67,1440.29,1376.52,1439.59,1379.81,1438.54Z" transform="translate(-155.53 -314.04)"/><path class="cls-6" d="M294,828.08c7.62,28.6,18.63,57,37.55,80.22l-.43,3.41c-5.77,18.87-4.81,28.1-7.89,45.56-13.17-34-21.78-69.56-34.59-103.71A177,177,0,0,1,294,828.08Z" transform="translate(-155.53 -314.04)"/><path class="cls-4" d="M606.65,736.48c18.61,27.07,32.21,56.86,44.61,87.17a54.92,54.92,0,0,1-12.5,6.06l-1.06-.19c-13.28-31.09-31.79-61.26-50.63-89.28C593.6,739.49,600.2,737.81,606.65,736.48Z" transform="translate(-155.53 -314.04)"/><path class="cls-7" d="M1788.71,491.58c4.61,49.59.07,96.12-9.65,144.82-3.38,16.91-6.88,34.47-13.61,50.39-2.07-4.35-4.78-8.94-6.31-13.48,3.5-4.49,2.36-16.15,3.13-22.11,1.81-14.15,6.29-28.41,9.54-42.31,4.31-18.42,7.82-37.45,10.34-56.18C1784.5,535.23,1782.36,506.88,1788.71,491.58Z" transform="translate(-155.53 -314.04)"/><path class="cls-6" d="M179.94,747.79c.41,5.11.3,7.81,4.38,11.43,13.4,11.89,39.39,20.3,56.68,25.56-1.67,10.9,1.32,26-1,35.13-19-5.69-38.51-13.73-51-29.88C178.87,777,177.69,763.52,179.94,747.79Z" transform="translate(-155.53 -314.04)"/><path class="cls-3" d="M539.05,663.43c24,17.63,52.61,46.89,67.6,73.05-6.45,1.33-13,3-19.58,3.76l-.92-.39c-12.65-21-49.87-52.14-70.24-65.46C523.3,670.28,531.5,667.37,539.05,663.43Z" transform="translate(-155.53 -314.04)"/><path class="cls-4" d="M444.72,617.81q6.34,1.79,12.59,3.84T469.72,626q6.16,2.34,12.21,4.94t12,5.47q5.93,2.87,11.73,6c3.86,2.09,7.68,4.25,11.45,6.51s7.48,4.58,11.14,7,7.28,4.91,10.83,7.48c-7.55,3.94-15.75,6.85-23.14,11l-.95,0c-23.5-18-64.32-32.87-93-39.8C429.29,628.55,437,623.21,444.72,617.81Z" transform="translate(-155.53 -314.04)"/><path class="cls-3" d="M308.94,622q4.08-1.35,8.22-2.57t8.3-2.27c2.78-.71,5.58-1.37,8.38-2s5.63-1.16,8.45-1.66,5.66-1,8.5-1.35,5.7-.75,8.55-1,5.72-.54,8.58-.73,5.73-.34,8.6-.42,5.74-.13,8.61-.11,5.74.08,8.61.2,5.73.3,8.6.52,5.72.5,8.57.83,5.7.71,8.53,1.14,5.67.92,8.49,1.45,5.63,1.12,8.43,1.76,5.59,1.33,8.36,2.07c-7.72,5.4-15.43,10.74-22.71,16.73l-1.08.05c-38.36-7.38-82.4-8.12-119.58,5.58Z" transform="translate(-155.53 -314.04)"/><path class="cls-6" d="M520.28,1083.15l.51-.64c11,8.69,48.88,12.3,63.59,14.52a394.61,394.61,0,0,0-10.63,69c-21-.07-44-2.12-63.81-9.55C509.51,1132.62,513.92,1106.16,520.28,1083.15Z" transform="translate(-155.53 -314.04)"/><path class="cls-6" d="M380.28,983.6l.62-.15c3.47,11.54,52,52.47,64.17,61.7l-.23,1.64c-5.82,23.54-10,47.37-9.44,71.73-23.82-19.79-48-46.06-63.95-72.71C371.56,1024,377.87,1004.83,380.28,983.6Z" transform="translate(-155.53 -314.04)"/><path class="cls-4" d="M605.84,1107.12l.25-1.32c13.94-69.18,58.92-135,117.5-174.25,41.47-27.79,92.56-46.39,142.1-52.31,8.86-1.06,19.25-3,28-1.28,1.27,4.14.08,8,1,12.16.15.65.32,1.3.48,2-.63.23-1.26.48-1.89.7-13.86,4.85-31.21,4.83-45.76,8.11-58.68,13.2-117.22,40.3-159.27,84-30.62,31.82-54.11,70.92-74.19,110C612.44,1098.16,609.54,1106.27,605.84,1107.12Z" transform="translate(-155.53 -314.04)"/><path class="cls-3" d="M234.47,664.8a9.19,9.19,0,0,0,5.18-.44c6.06-2.09,12.09-5.59,18-8.24,13.68-6.16,28.18-11.55,42.87-14.62-24.41,45.42-50.27,92.08-59.5,143.28-17.29-5.26-43.28-13.67-56.68-25.56-4.08-3.62-4-6.32-4.38-11.43C187.53,716.52,209.44,684.76,234.47,664.8Z" transform="translate(-155.53 -314.04)"/><path class="cls-3" d="M520.79,1082.51a303.34,303.34,0,0,1,25.29-57.22c25.35-45.13,72.49-105.6,123.43-119.95l2.42,38.14c-42.52,49-70.29,89.78-87.55,153.55C569.67,1094.81,531.8,1091.2,520.79,1082.51Z" transform="translate(-155.53 -314.04)"/><path class="cls-8" d="M301.35,640.17c37.18-13.7,81.22-13,119.58-5.58-53.17,43.83-113.1,125-127,193.49a177,177,0,0,0-5.36,25.48c-15.5-25.12-21.53-25.85-48.64-33.65,2.35-9.13-.64-24.23,1-35.13,9.23-51.2,35.09-97.86,59.5-143.28Z" transform="translate(-155.53 -314.04)"/><path class="cls-5" d="M1022.6,1029.5c12.16,7.12,24,15.26,36.5,21.7,33.48,17.22,68.35,29.36,104.39,39.81,71.44,20.74,125,29.51,199.48,30.46,23.57.3,46.78-2,70.29-2.57-4.42,16.18-19.75,64.35-30,75.72a8.88,8.88,0,0,0-1.85-1.68c-3-1.43-51.73-3.44-59.77-4.5-35.75-4.72-71.76-14.14-106.24-24.61-84.89-25.79-149.51-67.08-213.68-127.58Z" transform="translate(-155.53 -314.04)"/><path class="cls-3" d="M420.93,634.59l1.08-.05c28.63,6.93,69.45,21.85,93,39.8-16.79,9.38-33.08,19.14-48.21,31.09-63.15,49.9-111.62,126.1-135.23,202.87-18.92-23.24-29.93-51.62-37.55-80.22C307.83,759.6,367.76,678.42,420.93,634.59Z" transform="translate(-155.53 -314.04)"/><path class="cls-8" d="M637.7,829.52l1.06.19c6.12,14.89,18.38,53.17,28.87,63.28,1.55,3.6,1.94,8.45,1.88,12.35-50.94,14.35-98.08,74.82-123.43,119.95a303.34,303.34,0,0,0-25.29,57.22l-.51.64c-6.36,23-10.77,49.47-10.34,73.37-27-7.68-52-21.41-74.54-38-.56-24.36,3.62-48.19,9.44-71.73l.23-1.64a536.66,536.66,0,0,1,22.39-52.92C502.66,921.47,561.15,855.17,637.7,829.52Z" transform="translate(-155.53 -314.04)"/><path class="cls-4" d="M919,828.54c35.09-43.9,47.2-99,72.73-147.94,45-86.39,105.83-157.82,193.23-203.27,21.21-11,44.17-17.36,65.28-28,13.73-6.91,25.17-19,38.88-26.63,29.12-16.16,61-28.06,91.6-41.18l-9.41,14c-14.06,17.88-37.74,25-50.31,42.64,41.1-12.09,85-28.08,127.93-30.79-16.59,12.31-33.49,27.53-53.59,33.35,25.78,2.74,52,5.29,77.45,10.5,76,15.59,148.7,53,198.07,114,30.67,37.86,54.29,78.86,74.1,123.28,21.27,47.71,37.34,99.6,71.64,139.91l-13.88.23c-8.25-13.56-19.44-25.11-27-39.26-20-37.62-36.08-77.2-55.16-115.28-32.53-64.94-78-132.34-144.66-165.57-101.48-50.6-238.31-59.66-345.73-23.19-96.52,32.78-165.61,106.52-212,194.83-16.2,30.86-29.09,62.92-44.29,94.18-7.71,15.85-18.56,30-26.25,45.62C939.26,826.62,929.3,827.83,919,828.54Z" transform="translate(-155.53 -314.04)"/><path class="cls-3" d="M1285.17,445.84c15.74-14.4,66.15-48.15,86.14-50.32-14.06,17.88-37.74,25-50.31,42.64C1310.78,442.44,1296.2,443.86,1285.17,445.84Z" transform="translate(-155.53 -314.04)"/><path class="cls-3" d="M586.15,739.85l.92.39c18.84,28,37.35,58.19,50.63,89.28-76.55,25.65-135,92-170.24,162.71a536.66,536.66,0,0,0-22.39,52.92c-12.17-9.23-60.7-50.16-64.17-61.7A188.26,188.26,0,0,1,389.16,955c28.45-76.78,87.28-153,157.36-195.82C559.12,751.45,572.79,746,586.15,739.85Z" transform="translate(-155.53 -314.04)"/><path class="cls-8" d="M515,674.34l.95,0c20.37,13.32,57.59,44.46,70.24,65.46-13.36,6.16-27,11.6-39.63,19.29-70.08,42.79-128.91,119-157.36,195.82a188.26,188.26,0,0,0-8.26,28.49l-.62.15c-2.41,21.23-8.72,40.4-8.83,62.21-18.81-19.3-40.83-62.06-48.25-88.54,3.08-17.46,2.12-26.69,7.89-45.56l.43-3.41c23.61-76.77,72.08-153,135.23-202.87C481.88,693.48,498.17,683.72,515,674.34Z" transform="translate(-155.53 -314.04)"/><path class="cls-9" d="M1529,446.35c10.31-11.34,21.06-22.35,33.73-31.1,39.82-27.51,118.87-56.62,166.13-58.77,9.62-.44,20.47.16,28,6.92,22.45,20.2,31,96.13,31.88,127.19l0,1c-6.35,15.3-4.21,43.65-6.56,61.13-2.52,18.73-6,37.76-10.34,56.18-3.25,13.9-7.73,28.16-9.54,42.31-.77,6,.37,17.62-3.13,22.11q-18.35-33.69-37.07-67.15c-27.22-34.06-48.87-70.21-83.74-97.72-10.64-8.39-22.91-13.73-33.67-21.62l-.78-.59C1580.8,471.24,1554.78,456,1529,446.35Z" transform="translate(-155.53 -314.04)"/><path class="cls-8" d="M1603.88,486.23c17.16-22.43,49.69-39.73,77.52-43.56,11.1-1.53,22.64-1,31.88,6.06,14.71,11.21,19.49,35,21.37,52.43,3.81,35.22-1.73,71.45-12.58,105-27.22-34.06-48.87-70.21-83.74-97.72-10.64-8.39-22.91-13.73-33.67-21.62Z" transform="translate(-155.53 -314.04)"/><path class="cls-9" d="M970,688.88c-20.19-28.86-28.59-64.48-32.63-99-7.77-66.34,1.17-138.21,20.8-201.82,4.21-13.62,8.22-29.55,17.5-40.72,6.11-7.36,13.92-10.47,23.34-11.07,62.53-4,186,61.81,232.91,104-31.87,11.47-61.06,26.47-90.24,43.55l-.78.58c-9,6.52-19,11.68-28.19,17.85-20.37,13.61-38.94,30.83-55,49.32-11.16,12.87-34,48.74-43.36,56.29A677.51,677.51,0,0,0,970,688.88Z" transform="translate(-155.53 -314.04)"/><path class="cls-8" d="M1014.36,607.82c-17.26-42.27-16.78-93-7.11-137,3-13.49,7.4-31.1,20.15-38.64,10.13-6,23.1-3.89,33.85-.84,27.9,7.92,65.7,26.17,80.39,52.47l-.78.58c-9,6.52-19,11.68-28.19,17.85-20.37,13.61-38.94,30.83-55,49.32C1046.56,564.4,1023.77,600.27,1014.36,607.82Z" transform="translate(-155.53 -314.04)"/><path class="cls-8" d="M598.7,1143.81c2.8,14.82,47.54,48.93,60.41,57.72,83,56.64,186.68,75.12,285.52,71.5,21.06-.76,44.32-1.16,64.87-6.21a15.72,15.72,0,0,0,2.91-1c-3.67,21.55,9.08,79,15.22,100.91-13.49,3-28.08,3.82-41.86,4.84-63,4.65-128.87-1-186.11-29.29-9.8,39-6.5,80.14-.64,119.48,10.06,1.35,20.26,3.3,29,8.85,5.58,3.55,9.61,10.21,10.77,16.65.82,4.57.28,9.27-2.54,13.08a15.12,15.12,0,0,1-10.08,5.56,29.74,29.74,0,0,1-3.54.22c-.35-.08-.51-.51-.71-.81-5.77-8.48-1.29-20.45-12.35-28.39-6.06-4.34-12.85-3.64-19.81-2.61l.47,1.27a23,23,0,0,1,11.93,5c4.66,3.56,9,8.68,9.5,14.75a14.17,14.17,0,0,1,0,2.71c-.05.45-.13.89-.22,1.34s-.22.88-.36,1.31-.3.85-.48,1.26-.39.82-.61,1.22-.47.77-.73,1.14-.54.72-.84,1.07c-5.88,6.63-14.87,6.18-23,6.83.19-5.22,1.64-14.32-.55-19-1.82-3.87-6.61-9.06-10.67-10.54-2.2-.8-1.24-.69-3.61.28l-1,2.54a20.52,20.52,0,0,1,2.9,2.25c3.91,3.82,4.91,11,4.55,16.24-.13,1.94-.35,4.14-2,5.36-4.61,3.45-13,2.16-18.47,1.6-35.45-3.62-57.75-12-80.69-40.3C609.88,1389.3,588.49,1245.75,598.7,1143.81Z" transform="translate(-155.53 -314.04)"/><path class="cls-8" d="M1012.41,1265.83c-4.68-25.27-5.16-52.16-5.22-77.79-.12-51.62,3.12-101.39,14.54-151.79,64.17,60.5,128.79,101.79,213.68,127.58,34.48,10.47,70.49,19.89,106.24,24.61,8,1.06,56.8,3.07,59.77,4.5a8.88,8.88,0,0,1,1.85,1.68c-37.78,65.05-91.11,119.2-160.51,150.11,7.41-24,13.67-51.13,10.94-76.28-30,38.18-53.9,140.44-50.82,188l1.41.68c13.48,6.27,33.67,7.28,40.13,23.23a17.88,17.88,0,0,1-.9,14.35c-2.11,4.32-9,7.33-13.32,8.61-2.47.72-3,1-5.19-.13a18.29,18.29,0,0,1,2.94-4.63c-2.6-8-10-26.58-17.75-30.46-3.58-1.79-10.39-1.54-14.16-.24-.41.14-.79.36-1.19.54l0,1.55c1.7,1,3.37,2,5.11,2.94,7.74,4.1,13.33,12,16,20.3a16.41,16.41,0,0,1,.39,9.51c-2.36,3.09-3.68,4.19-7.6,4.75a114.89,114.89,0,0,1-18,1.26c-2.41-6.33-5.17-18.57-11.26-21.93-1.63-.91-3.23-.8-5-.72,0,3.59,3,7.52,4.84,10.68,2.22,3.88,2.8,8.62,3.63,13-24.51,0-52.52-1-71-19.23-34-33.62-65.58-130.27-80.68-177.74-3.38-10.6-9-35.77-14-43.88C1016,1266.65,1014.87,1266.32,1012.41,1265.83Z" transform="translate(-155.53 -314.04)"/><path class="cls-3" d="M895.25,892.07c31.31,49.07,51.56,74.61,95.84,113,9.49,8.23,20.45,18.54,31.51,24.41l-.87,6.75c-11.42,50.4-14.66,100.17-14.54,151.79.06,25.63.54,52.52,5.22,77.79a15.72,15.72,0,0,1-2.91,1c-20.55,5-43.81,5.45-64.87,6.21-98.84,3.62-202.55-14.86-285.52-71.5-12.87-8.79-57.61-42.9-60.41-57.72,2.57-12.18,3.61-24.72,7.14-36.69,3.7-.85,6.6-9,8.3-12.26,20.08-39.07,43.57-78.17,74.19-110,42-43.69,100.59-70.79,159.27-84,14.55-3.28,31.9-3.26,45.76-8.11C894,892.55,894.62,892.3,895.25,892.07Z" transform="translate(-155.53 -314.04)"/><path class="cls-3" d="M947.69,820c7.69-15.63,18.54-29.77,26.25-45.62,15.2-31.26,28.09-63.32,44.29-94.18,46.36-88.31,115.45-162,212-194.83,107.42-36.47,244.25-27.41,345.73,23.19,66.64,33.23,112.13,100.63,144.66,165.57,19.08,38.08,35.13,77.66,55.16,115.28,7.53,14.15,18.72,25.7,27,39.26a66.09,66.09,0,0,1-22.38-4.57c12.39,16.74,25,31,41.11,44.32-12.15,6.86-20.35,10.51-34.7,9.56l-7.81-.47c8.59,8,17.68,12,27.59,18-14.48,30.79-75.9,99-105.4,110.44-.38.15-.78.24-1.16.36a438.32,438.32,0,0,1-58,33.88c-15.67,13.88-107.32,45.33-128.08,45.25a11.9,11.9,0,0,1-3.51-.42c-41.8,17-105.09,15.64-149.68,14.79-17.84-.34-41.36.89-58.09-5.64-20.26-.24-90.25-7.83-106.54-16.21-23.22-5.31-51.78-12.55-72.6-24.12a38.23,38.23,0,0,1-5.22-.79c-12.79-3-25.5-9.42-37.23-15.24C1020.9,1007.9,957.71,955.25,923.33,897c5,.42,10.3.84,15.26-.06,14.17-2.56,23-11.86,30.84-23.09-23.3,2.77-40.1,4.17-62.59-4.08,27.12-12.06,47.1-31.71,59.55-58.61C960.24,814.32,954.05,817.22,947.69,820Z" transform="translate(-155.53 -314.04)"/><path class="cls-9" d="M1233.05,656.42c13.34.1,25.09,2.62,36.5,10,8.12,5.22,15.75,12.94,17.46,22.81a19.59,19.59,0,0,1-3.14,15.06c-6.52,9.06-18.35,11.07-28.62,12.65-13.65-.25-25.92-2.2-37.72-9.56-8.23-5.14-16.65-13.09-18.4-23.07a18.68,18.68,0,0,1,3.51-14.79C1209.53,660.56,1222.46,657.8,1233.05,656.42Z" transform="translate(-155.53 -314.04)"/><path class="cls-9" d="M1573.09,655.05c9.9-.87,20.83.29,29.61,5.3,5.36,3,9.44,7.76,10.84,13.86,1.55,6.77-.46,13.68-4.31,19.32-9.35,13.73-25.42,18.75-40.86,21.71-10.83,1.12-23,1-32.78-4.54-4.74-2.67-8.41-6.71-9.71-12.07-1.49-6.16.32-12.71,3.51-18C1538.6,665.25,1556.58,658.8,1573.09,655.05Z" transform="translate(-155.53 -314.04)"/><path class="cls-9" d="M1542,803.1c.26-11.64,14.71-27.34,22.79-35.08,16.74-16,38.78-27.06,62.34-26.37,28.74.83,53.2,17.61,72.15,38.1,29.5,31.9,51.69,79.59,49.53,123.69-1.51,31-12.3,57.32-31.3,81.72-5.6,7.18-12.25,13.77-17.57,21.1a438.32,438.32,0,0,1-58,33.88c1.34-4.45,7-10.19,9.91-14.09,17.61-23.58,29.93-45.51,30.91-75.67,1.55-47.94-18.92-100.51-51.49-135.52-5.8-7.24-11.51-14.46-18.8-20.26-10.83-8.61-24.48-13.86-38.43-12S1550.29,792.47,1542,803.1Z" transform="translate(-155.53 -314.04)"/><path class="cls-9" d="M1123.46,1053.79c-15-11-29.35-23-42.13-36.49-28-29.72-52.18-70.1-50.59-112.25,1.6-42.55,23.09-83,53.92-111.62,30.26-28.1,67.34-51.53,110.14-49.81,23,.93,43.73,8.27,59.39,25.56,9.78,10.79,25.6,34,24.93,49.13-7.77-14.95-16.65-26.1-33.32-31.58-16.25-5.33-33.66-3.11-48.63,4.93-11,5.93-17.69,14.12-24.6,24.38-1.8,2.67-3.5,6.27-6,8.25-33.39,26.94-57.58,75.64-62.15,118-3.54,32.8,4,60.68,24.84,86.42,12,14.87,29.63,27.39,45.91,37.21,5.56,3.36,17,7.44,20.88,12C1172.84,1072.6,1144.28,1065.36,1123.46,1053.79Z" transform="translate(-155.53 -314.04)"/><path class="cls-8" d="M1542,803.1c8.26-10.63,18.22-18.73,32-20.53s27.6,3.42,38.43,12c7.29,5.8,13,13,18.8,20.26,32.57,35,53,87.58,51.49,135.52-1,30.16-13.3,52.09-30.91,75.67-2.92,3.9-8.57,9.64-9.91,14.09-15.67,13.88-107.32,45.33-128.08,45.25a11.9,11.9,0,0,1-3.51-.42c1.49-1.18,3.19-2.17,4.77-3.23,28.27-19,53.56-39.88,60.5-74.92,8.47-44.56-21.68-84.92-43.07-121.43l4-4.7a59.11,59.11,0,0,1-4.54-11.55C1525.26,845.71,1530.67,823.94,1542,803.1Z" transform="translate(-155.53 -314.04)"/><path class="cls-10" d="M1632.18,831.75l2.91-4.85c6.66,18.76,9.18,38.7.16,57.32-5.36,11.07-15.44,21.3-27.23,25.33-4.71-.75-10.5,1.49-15.35,2a9.33,9.33,0,0,1,4.48-2.32c.62-.17,1.25-.29,1.88-.44l.84-1.88c15.23-7,27-17.26,33-33.3C1637.66,860.88,1637.78,844.36,1632.18,831.75Z" transform="translate(-155.53 -314.04)"/><path class="cls-2" d="M1542,803.1c8.26-10.63,18.22-18.73,32-20.53s27.6,3.42,38.43,12c7.29,5.8,13,13,18.8,20.26,1.23,3.68,3.34,8.23,3.8,12l-2.91,4.85c5.6,12.61,5.48,29.13.69,41.89-6,16-17.77,26.28-33,33.3l-.84,1.88c-.63.15-1.26.27-1.88.44a9.33,9.33,0,0,0-4.48,2.32c4.85-.54,10.64-2.78,15.35-2-9.7,5.14-22.29,6-32.89,3.53-18.37-4.35-29.12-17.15-38.57-32.39a59.11,59.11,0,0,1-4.54-11.55C1525.26,845.71,1530.67,823.94,1542,803.1Z" transform="translate(-155.53 -314.04)"/><path class="cls-9" d="M1632.18,831.75c5.6,12.61,5.48,29.13.69,41.89-6,16-17.77,26.28-33,33.3-2.39.34-4.74.51-7.16.63,4.3-3.08,8.81-5.93,12.76-9.45C1625.22,880.47,1630.66,857.21,1632.18,831.75Z" transform="translate(-155.53 -314.04)"/><path class="cls-9" d="M1560.89,806.55a30.3,30.3,0,0,1,7.48.67,15.14,15.14,0,0,1,9.68,7.86,20.8,20.8,0,0,1,1.29,15.58c-2.06,7-5.34,10.41-11.57,13.87l-1.62-.14c-5.67-.57-10.21-2.56-13.68-7.24a19.48,19.48,0,0,1-3.26-15.3C1550.6,814.2,1554.64,810.6,1560.89,806.55Z" transform="translate(-155.53 -314.04)"/><path class="cls-8" d="M1166.58,824.29c2.49-2,4.19-5.58,6-8.25,6.91-10.26,13.57-18.45,24.6-24.38,15-8,32.38-10.26,48.63-4.93,16.67,5.48,25.55,16.63,33.32,31.58,7.1,20.42,11.69,42,2.08,62.55a73.65,73.65,0,0,1-10.43,15.87l1-1.16,9,5.39c-.24.35-1.9,2.42-4.24,5.34-22.62,30.88-51.06,62.78-45,104,2,13.43,8.35,28.48,17.58,38.59,14.72,20.52,32.07,32.51,53.54,45.26-20.26-.24-90.25-7.83-106.54-16.21-3.92-4.59-15.32-8.67-20.88-12-16.28-9.82-33.86-22.34-45.91-37.21-20.85-25.74-28.38-53.62-24.84-86.42C1109,899.93,1133.19,851.23,1166.58,824.29Z" transform="translate(-155.53 -314.04)"/><path class="cls-2" d="M1166.58,824.29c2.49-2,4.19-5.58,6-8.25,6.91-10.26,13.57-18.45,24.6-24.38,15-8,32.38-10.26,48.63-4.93,16.67,5.48,25.55,16.63,33.32,31.58,7.1,20.42,11.69,42,2.08,62.55a73.65,73.65,0,0,1-10.43,15.87c-7.63,4.67-13.58,12.65-21.63,17.36-13.08,7.66-31.37,8-45.78,4.32-16.11-4.11-29.8-13.84-38.11-28.4C1153.05,868.62,1160.65,846.18,1166.58,824.29Z" transform="translate(-155.53 -314.04)"/><path class="cls-9" d="M1167.63,844.07c2.46,11.33,1.87,22.26,6.32,33.36,7.41,18.46,21.43,28.43,39.09,35.91l.94,1.33a42.72,42.72,0,0,1-11.82-1.82c-.82-.23-1.64-.49-2.44-.76s-1.61-.57-2.4-.88-1.58-.64-2.36-1-1.54-.72-2.3-1.11-1.5-.8-2.24-1.22-1.46-.87-2.18-1.34-1.42-.94-2.11-1.44-1.37-1-2-1.54-1.32-1.08-2-1.64-1.26-1.14-1.88-1.74-1.2-1.2-1.78-1.82-1.15-1.26-1.7-1.91-1.08-1.32-1.6-2-1-1.36-1.5-2.07-.94-1.41-1.39-2.14-.88-1.46-1.29-2.21C1163.12,873.89,1163.59,859.18,1167.63,844.07Z" transform="translate(-155.53 -314.04)"/><path class="cls-9" d="M1231.31,805.29c2.83,0,6-.2,8.72.65,4.84,1.52,9.08,5.68,11.35,10.12a22.6,22.6,0,0,1,1.08,17.07c-2.27,6.83-6.39,9.93-12.56,13.13a20.57,20.57,0,0,1-3.43,0c-.63,0-1.26-.12-1.88-.22s-1.24-.25-1.85-.42-1.21-.38-1.8-.61a18.79,18.79,0,0,1-3.37-1.75,16.76,16.76,0,0,1-1.53-1.13,18.79,18.79,0,0,1-2.67-2.68c-3.6-4.41-4.57-10.21-3.85-15.74C1220.62,815.32,1224.61,810.16,1231.31,805.29Z" transform="translate(-155.53 -314.04)"/><path class="cls-9" d="M1276.51,906.3c29.69-36.53,53.6-83.41,94.77-108.57,19.43-11.87,44.49-16.78,66.77-11.25,44.58,11.07,72.81,62.49,94.52,98.91,21.39,36.51,51.54,76.87,43.07,121.43-6.94,35-32.23,55.95-60.5,74.92-1.58,1.06-3.28,2-4.77,3.23-41.8,17-105.09,15.64-149.68,14.79-17.84-.34-41.36.89-58.09-5.64-21.47-12.75-38.82-24.74-53.54-45.26-9.23-10.11-15.62-25.16-17.58-38.59C1225.45,969.08,1253.89,937.18,1276.51,906.3Z" transform="translate(-155.53 -314.04)"/><path class="cls-1" d="M1249.06,1048.86c37.82,20.41,79,28,121.48,30.67,53.13,3.38,125.72-3,169.26-36.61,13.41-10.36,22.45-24.54,35.06-35.45l.78-.65c-6.94,35-32.23,55.95-60.5,74.92-1.58,1.06-3.28,2-4.77,3.23-41.8,17-105.09,15.64-149.68,14.79-17.84-.34-41.36.89-58.09-5.64C1281.13,1081.37,1263.78,1069.38,1249.06,1048.86Z" transform="translate(-155.53 -314.04)"/><path class="cls-2" d="M1411.35,901.09c9.69-.71,18.61-.4,27.92,2.72,9.84,3.29,21.27,10,25.74,19.82a16.88,16.88,0,0,1,.33,13.21c-6.55,17-29.94,24.29-45.45,30.57.15,10,1,19,8.68,26.41,6.9,6.66,17.3,9.78,26.74,9.23,20.12-1.17,26.43-13.2,38.23-26.85l1,1.41c-.21,9.42-3,16.52-9.59,23.42-.56.58-1.14,1.15-1.73,1.7s-1.19,1.09-1.81,1.61-1.24,1-1.89,1.51-1.3,1-2,1.41-1.35.9-2,1.32-1.39.82-2.1,1.2-1.43.75-2.16,1.1-1.47.67-2.21,1-1.5.6-2.26.87-1.53.52-2.3.74-1.56.44-2.34.63-1.58.36-2.37.51-1.59.28-2.39.39-1.6.19-2.41.26-1.61.11-2.42.14-1.61,0-2.42,0c-12.14-.22-21.87-4.76-30.22-13.41a54.88,54.88,0,0,0-5.26-5.94c-4.14,8.3-8.34,12.62-16.94,16.41-11.23,4.94-24,5.86-35.48,1.17-10-4.1-19.34-12.72-23.54-22.8-1.47-3.54-3.3-8.6-1.74-12.33,6,2.07,10.51,13,15.89,17.19,8.33,6.45,19.51,9.74,30,8,10.65-1.77,20.34-8.91,26.38-17.71,3.1-4.53,4.76-9.61,3.6-15.09s-14.83-10.08-19.9-13.4c-8.87-5.81-19.16-13.62-21.07-24.74a20.28,20.28,0,0,1,3.63-15.17C1383.33,906.39,1398.61,902.94,1411.35,901.09Z" transform="translate(-155.53 -314.04)"/></svg>