<?xml version="1.0" encoding="UTF-8"?>
<svg version="1.1" xmlns="http://www.w3.org/2000/svg" width="96" height="96">
<path d="M0 0 C7.73873293 -0.68551768 13.06867595 0.43684115 19.98046875 4.00390625 C23.23750665 5.07834954 25.44973475 4.87473582 28.7980957 4.31713867 C32.84617508 3.73409675 36.91785483 3.85644479 41 3.875 C41.85078125 3.87113281 42.7015625 3.86726562 43.578125 3.86328125 C47.55567472 3.86938179 51.33524396 4.00628674 55.26171875 4.66015625 C59.41401292 5.03763754 61.16034295 4.44731951 64.8125 2.5625 C70.73361128 -0.16799972 75.55962013 -0.57050609 82 0 C85.35169617 6.70339234 83.01479534 16.42818639 81.0625 23.25 C79.81044685 28.15596819 79.81044685 28.15596819 81.39453125 32.78515625 C82.69586208 34.44582892 84.0235672 36.0862293 85.37890625 37.703125 C87.19974088 40.28300636 87.52188029 41.44863935 87.3125 44.5625 C85.439365 53.26797169 79.01540736 59.93037544 72 65 C67.59311233 67.66642425 62.89740387 69.50365514 58.05078125 71.20703125 C55.9614742 71.9727942 55.9614742 71.9727942 53.91796875 73.07421875 C47.10645993 76.57202058 40.0099421 77.58891368 32.5859375 75.234375 C31.10846559 74.57656065 29.64908767 73.87656135 28.2109375 73.13671875 C25.85570114 71.92581101 23.47723212 70.99622595 21 70.0625 C9.35058353 65.40273341 1.57647257 59.89287324 -4.15234375 48.52734375 C-5.18744943 45.44110701 -5.39134104 43.23707103 -5 40 C-3.36328125 37.71875 -3.36328125 37.71875 -1.3125 35.5 C1.10847312 32.26557991 2.05064865 30.81427449 1.796875 26.734375 C1.21474019 24.37408294 0.58683673 22.02469387 -0.08203125 19.6875 C-1.51068511 13.94856704 -2.74316718 5.48633435 0 0 Z " fill="#E54A19" transform="translate(7,10)"/>
<path d="M0 0 C5.45467233 3.18102306 10.18650696 7.41598268 13.04296875 13.12890625 C13.31111975 16.68190707 13.28385521 19.43836507 12.10546875 22.81640625 C8.29130702 27.09289061 3.72855729 28.7758209 -1.8984375 29.515625 C-8.61016746 29.76420759 -14.30526308 28.92154015 -19.95703125 25.12890625 C-22.54806849 22.22380389 -22.90335011 20.55068661 -23.39453125 16.69140625 C-22.53409561 9.68500173 -17.93421293 5.95935405 -12.859375 1.546875 C-8.94604994 -1.37003875 -4.49600348 -2.00121512 0 0 Z " fill="#FEDDAF" transform="translate(52.95703125,56.87109375)"/>
<path d="M0 0 C8.68727286 -0.76954189 15.2959062 0.91917985 23 5 C23.66 5.66 24.32 6.32 25 7 C22.01487635 9.26145731 20.48269647 10.01821496 16.6875 9.875 C12.5897514 8.90265287 8.90323229 7.57498847 5 6 C5.144375 6.79664063 5.28875 7.59328125 5.4375 8.4140625 C5.623125 9.47367188 5.80875 10.53328125 6 11.625 C6.185625 12.66914063 6.37125 13.71328125 6.5625 14.7890625 C7.68362157 23.017294 7.68362157 23.017294 5 26.875 C4.34 27.57625 3.68 28.2775 3 29 C0.2757466 22.0116978 -1.14097718 16.39367045 -1.125 8.8125 C-1.12757813 7.58144531 -1.13015625 6.35039062 -1.1328125 5.08203125 C-1 2 -1 2 0 0 Z " fill="#FCCE7E" transform="translate(7,10)"/>
<path d="M0 0 C0.99386719 0.00902344 1.98773438 0.01804687 3.01171875 0.02734375 C4.15060547 0.04474609 4.15060547 0.04474609 5.3125 0.0625 C8.95032565 7.3381513 6.12032075 18.35280147 4.1640625 25.83203125 C3.3125 28.0625 3.3125 28.0625 1.3125 29.0625 C-1.46965564 25.15457519 -1.99899119 22.86715927 -1.4375 18.125 C-1.32019531 17.07957031 -1.20289062 16.03414062 -1.08203125 14.95703125 C-0.67615415 11.97925969 -0.26123272 9.01312543 0.3125 6.0625 C-0.41195312 6.36285156 -1.13640625 6.66320312 -1.8828125 6.97265625 C-11.82849783 10.88462581 -11.82849783 10.88462581 -16.6875 9.0625 C-17.71740161 8.09332372 -18.72315572 7.09692744 -19.6875 6.0625 C-17.91752526 5.24813132 -16.14648848 4.4360706 -14.375 3.625 C-13.38886719 3.17253906 -12.40273437 2.72007813 -11.38671875 2.25390625 C-7.33686169 0.46634271 -4.39766119 -0.05173719 0 0 Z " fill="#FDCF7E" transform="translate(83.6875,9.9375)"/>
<path d="M0 0 C1.7109375 1.03125 1.7109375 1.03125 3 3 C3.02940069 5.72250416 2.91560529 8.18690103 2.625 10.875 C2.17865817 15.41280861 1.79210551 19.53604212 3 24 C-0.8983794 22.92985664 -3.14781482 22.15804372 -5.578125 18.85546875 C-8.48522588 13.41718521 -9.86179545 9.14029259 -9 3 C-6.89283346 -0.74607384 -4.00604938 -0.50075617 0 0 Z " fill="#FDD7A8" transform="translate(21,54)"/>
<path d="M0 0 C1.875 1 1.875 1 3 3 C3.9644284 9.87155234 2.11680394 15.4056303 -2 21 C-4.37852668 22.63646567 -6.17369131 23.22415056 -9 24 C-8.835 23.319375 -8.67 22.63875 -8.5 21.9375 C-7.51664752 16.1603042 -8.08401805 10.73678459 -9.07421875 5.015625 C-9 3 -9 3 -7.70703125 1.2578125 C-5.10077506 -0.6625868 -3.14055373 -0.39256922 0 0 Z " fill="#FDD7A9" transform="translate(81,54)"/>
<path d="M0 0 C-0.11455681 1.91731918 -0.24206258 3.8338675 -0.375 5.75 C-0.44460937 6.81734375 -0.51421875 7.8846875 -0.5859375 8.984375 C-1 12 -1 12 -3 16 C-6.3 12.37 -9.6 8.74 -13 5 C-8.69529996 1.77147497 -5.41141396 0 0 0 Z " fill="#4C4844" transform="translate(84,16)"/>
<path d="M0 0 C4.50066475 1.06795435 8.7494534 2.14038586 13 4 C12.60167969 4.45890625 12.20335937 4.9178125 11.79296875 5.390625 C8.39984291 9.31674827 8.39984291 9.31674827 5.25 13.4375 C4.8375 13.953125 4.425 14.46875 4 15 C3.34 15 2.68 15 2 15 C1.66048381 13.43883181 1.32867456 11.87598662 1 10.3125 C0.814375 9.44238281 0.62875 8.57226562 0.4375 7.67578125 C0.01027953 5.06287036 -0.07616201 2.64186962 0 0 Z " fill="#494543" transform="translate(12,16)"/>
<path d="M0 0 C2.875 1.625 2.875 1.625 5 4 C5.3125 7.25 5.3125 7.25 5 10 C4.01 10.495 4.01 10.495 3 11 C2.34 9.68 1.68 8.36 1 7 C-1.47266765 7.34444881 -1.47266765 7.34444881 -4 8 C-4.33 8.66 -4.66 9.32 -5 10 C-6.32 9.34 -7.64 8.68 -9 8 C-9.22223194 5.25913944 -9.34781139 3.56036279 -7.875 1.1875 C-5.07306524 -0.58705868 -3.25598452 -0.45583783 0 0 Z " fill="#FCD7A9" transform="translate(65,42)"/>
<path d="M0 0 C2.375 1.1875 2.375 1.1875 4 3 C4.25 5.6875 4.25 5.6875 4 8 C2.02 8.99 2.02 8.99 0 10 C-0.66 9.01 -1.32 8.02 -2 7 C-4.43717258 7.27034634 -4.43717258 7.27034634 -7 8 C-7.66 8.99 -8.32 9.98 -9 11 C-10 10 -10 10 -10.3125 7.1875 C-10 4 -10 4 -8.375 1.625 C-5.30522452 -0.4753727 -3.65443439 -0.53293835 0 0 Z " fill="#FCD7A9" transform="translate(36,42)"/>
<path d="M0 0 C3.3 0 6.6 0 10 0 C10.33 1.65 10.66 3.3 11 5 C9.375 6.5625 9.375 6.5625 7 8 C3.32706204 7.77962372 1.63033454 7.63033454 -1 5 C-0.625 2.375 -0.625 2.375 0 0 Z " fill="#2E2D2A" transform="translate(43,64)"/>
<path d="M0 0 C2.625 0.375 2.625 0.375 5 1 C5.625 3.375 5.625 3.375 6 6 C5.34 6.66 4.68 7.32 4 8 C1.375 7.625 1.375 7.625 -1 7 C-1.625 4.625 -1.625 4.625 -2 2 C-1.34 1.34 -0.68 0.68 0 0 Z " fill="#2E2926" transform="translate(62,48)"/>
<path d="M0 0 C2.625 0.375 2.625 0.375 5 1 C5.625 3.375 5.625 3.375 6 6 C5.34 6.66 4.68 7.32 4 8 C1.375 7.625 1.375 7.625 -1 7 C-1.625 4.625 -1.625 4.625 -2 2 C-1.34 1.34 -0.68 0.68 0 0 Z " fill="#2E2926" transform="translate(30,48)"/>
</svg>
